/* XPM */
static char *result[] = {
/* columns rows colors chars-per-pixel */
"30 34 26 1 ",
"  c #080000",
". c #090101",
"X c #0D0404",
"o c #0F0606",
"O c #110707",
"+ c #110908",
"@ c #130909",
"# c #150A0A",
"$ c #140B0B",
"% c #160B0B",
"& c #1A0E0E",
"* c #1A1010",
"= c #201313",
"- c #221414",
"; c #231515",
": c #271818",
"> c #B97371",
", c #BA7573",
"< c #AA9392",
"1 c #B9A09F",
"2 c #CF9C9B",
"3 c #D8AFAE",
"4 c #DAB3B2",
"5 c #DBB5B4",
"6 c #E3C6C5",
"7 c None",
/* pixels */
"77777777777        77777777777",
"777777777            777777777",
"7777777    22222222    7777777",
"777777   266666666662   777777",
"77777  2666666666666662  77777",
"7777  266666666666666662  7777",
"777  26666666666666666662  777",
"777  66666666666666666666  777",
"77  2666666666666666666662  77",
"77  6666666666666666666666  77",
"7  266666666666666666666662  7",
"7  266666666666666666666662  7",
"7  266666666666666666666662  7",
"7  266666666666666666666662  7",
"7  >2666666666666666666662>  7",
"77  2666666666666666666662  77",
"77  >26666666666666666662>  77",
"777  26666666666666666662  777",
"777  >266666666666666662>  777",
"7777  >2666666666666662>  7777",
"77777  >22666666666622>  77777",
"777777   >2266666622>   777777",
"7777777    >222222>    7777777",
"777777  =+.       .o*-  777777",
"777777  156:&%#@XO;65<  777777",
"777777  66,22224322$6   777777",
"7777777 22 22266662    7777777",
"7777777     >2>6666   77777777",
"77777777     > 6266  777777777",
"77777777777    >666  777777777",
"777777777777   6666  777777777",
"7777777777777  666  7777777777",
"7777777777777       7777777777",
"77777777777777     77777777777"
};
