/* XPM */
static char *result[] = {
/* columns rows colors chars-per-pixel */
"30 34 9 1 ",
"  c #080000",
". c #B97371",
"X c #67979C",
"o c #CF9C9B",
"O c #9CC8CC",
"+ c #9CC8CD",
"@ c #E3C6C5",
"# c white",
"$ c None",
/* pixels */
"$$$$$$$$$$$$$$$$$$$$$$$$$$$$$$",
"$$$$$$$$$$$        $$$$$$$$$$$",
"$$$$$$$$$            $$$$$$$$$",
"$$$$$$$    oooooooo    $$$$$$$",
"$$$$$$   o@@@@@@@@@@o   $$$$$$",
"$$$$$  o@@@@@@@@@@@@@@o  $$$$$",
"$$$$  o@@@@@@@@@@@@@@@@o  $$$$",
"$$$  o@@@@@@@@@@@@@@@@@@o  $$$",
"$$$  @@@@@@@@@@@@@@@@@@@@  $$$",
"$$  o@@@@@@@@@@@@@@@@@@@@o  $$",
"$$  @@@@@@@@@@@@@@@@@@@@@@  $$",
"$  o@@@@@@@@@@@o    o@@@@@o  $",
"$  o@@@@@@@@@@@ ##   @@@@@o  $",
"$  o@@@@@@@@@@@ ##   @@@@@o  $",
"$  o@@@@@@@@@@@      @@@o    $",
"$  .o@@@@@@@@@@      @@o     $",
"$$  o@@@@@@@@@@o    o@@ ###  $",
"$$  .o@@@@@@@@@@OOOO@@@      $",
"$$$  o@@@@@@@@@@O+++@@@ooo  $$",
"$$$  .o@@@@@@@@@OO++@@@@o.  $$",
"$$$$  .o@@@@@@@@O+++@@@o.  $$$",
"$$$$$  .oo@@@@@@++++@@o.  $$$$",
"$$$$$$   .o@@@@@+++Xo.   $$$$$",
"$$$$$$$    .ooooXXX     $$$$$$",
"$$$$$$                 $$$$$$$",
"$$$$$$  ooo        .    $$$$$$",
"$$$$$$  oo@@@oooooo...  $$$$$$",
"$$$$$$   @@ o@@@@@o...  $$$$$$",
"$$$$$$$     o@@@@@@o..  $$$$$$",
"$$$$$$$$    oo@@@@ ..   $$$$$$",
"$$$$$$$$$$$  o@@@      $$$$$$$",
"$$$$$$$$$$$  ooo      $$$$$$$$",
"$$$$$$$$$$$       $$$$$$$$$$$$",
"$$$$$$$$$$$$     $$$$$$$$$$$$$"
};
