/* XPM */
static char *result[] = {
/* columns rows colors chars-per-pixel */
"30 34 12 1 ",
"  c #080000",
". c #B97371",
"X c #67979B",
"o c #67979C",
"O c #68989C",
"+ c #CF9C9B",
"@ c #9CC8CC",
"# c #9CC8CD",
"$ c #9DC9CD",
"% c #E3C6C5",
"& c white",
"* c None",
/* pixels */
"******************************",
"***********        ***********",
"*********            *********",
"*******    ++++++++    *******",
"******   +%%%%%%%%%%+   ******",
"*****  +%%%%%%%%%%%%%%+  *****",
"****  +%%%%%%%%%%%%%%%%+  ****",
"***  +%%%%%%%%%%%%%%%%%%+  ***",
"***  %%%%%%%%%%%%%%%%%%%%  ***",
"**  +%%%%%%%%%%%%%%%%%%%%+  **",
"**  %%%%%%%%%%%%%%%%%%%%%%  **",
"*  +%%%%%%%%%%%%%%%%%%%%%%+  *",
"*  +%+    +%%%%%%%%+    +%+  *",
"*  +% &&   %%%%%%%% &&   %+  *",
"*  ++ &&   %%%%%%%% &&   ++  *",
"*  .+      %%    %%      +.  *",
"**  +      %      %      +  **",
"**  .+    +% &&&& %+    +.  **",
"***  +@@@+%%      %%+@@@+  ***",
"***  .###%%%%%%%%%%%%###.  ***",
"****  O@$%%%%%%%%%%%%@#o  ****",
"*****  o@+%%%%%%%%%%+@X  *****",
"******   X+%%%%%%%%+o   ******",
"*******    .++++++.    *******",
"********              ********",
"*******  +%        %+  *******",
"******  +%%++++++++%%+  ******",
"******  +% +%%%%%%+ %+  ******",
"******  +% %%%%%%%% %+  ******",
"*******    %%+  +%%    *******",
"********   %%%  +%%   ********",
"*********   %%  +%   *********",
"**********          **********",
"***********   **   ***********"
};
