/* XPM */
static char *result[] = {
/* columns rows colors chars-per-pixel */
"30 34 9 1 ",
"  c #080000",
". c #B97371",
"X c #67979C",
"o c #CF9C9B",
"O c #9CC8CC",
"+ c #9CC8CD",
"@ c #E3C6C5",
"# c white",
"$ c None",
/* pixels */
"$$$$$$$$$$$$$$$$$$$$$$$$$$$$$$",
"$$$$$$$$$$$        $$$$$$$$$$$",
"$$$$$$$$$            $$$$$$$$$",
"$$$$$$$    oooooooo    $$$$$$$",
"$$$$$$   o@@@@@@@@@@o   $$$$$$",
"$$$$$  o@@@@@@@@@@@@@@o  $$$$$",
"$$$$  o@@@@@@@@@@@@@@@@o  $$$$",
"$$$  o@@@@@@@@@@@@@@@@@@o  $$$",
"$$$  @@@@@@@@@@@@@@@@@@@@  $$$",
"$$  o@@@@@@@@@@@@@@@@@@@@o  $$",
"$$  @@@@@@@@@@@@@@@@@@@@@@  $$",
"$  o@@@@@o    o@@@@@@@@@@@o  $",
"$  o@@@@@   ## @@@@@@@@@@@o  $",
"$  o@@@@@   ## @@@@@@@@@@@o  $",
"$    o@@@      @@@@@@@@@@@o  $",
"$     o@@      @@@@@@@@@@o.  $",
"$  ### @@o    o@@@@@@@@@@o  $$",
"$      @@@OOOO@@@@@@@@@@o.  $$",
"$$  ooo@@@+++O@@@@@@@@@@o  $$$",
"$$  .o@@@@++OO@@@@@@@@@o.  $$$",
"$$$  .o@@@+++O@@@@@@@@o.  $$$$",
"$$$$  .o@@++++@@@@@@oo.  $$$$$",
"$$$$$   .oX+++@@@@@o.   $$$$$$",
"$$$$$$     XXXoooo.    $$$$$$$",
"$$$$$$$$              $$$$$$$$",
"$$$$$$$$$          @o  $$$$$$$",
"$$$$$$$$$  ooooooo@@@o  $$$$$$",
"$$$$$$$$   @@@@@@o @@o  $$$$$$",
"$$$$$$$$  oo@@@@@@o @o  $$$$$$",
"$$$$$$$$  ooo. @@@o    $$$$$$$",
"$$$$$$$$  ooo. @@@o   $$$$$$$$",
"$$$$$$$$$  oo. ooo   $$$$$$$$$",
"$$$$$$$$$$          $$$$$$$$$$",
"$$$$$$$$$$$        $$$$$$$$$$$"
};
