/* XPM */
static char *result[] = {
/* columns rows colors chars-per-pixel */
"30 30 96 2 ",
"   c #070816",
".  c #050718",
"X  c #0A071A",
"o  c #060819",
"O  c #0B0A1C",
"+  c #130C1B",
"@  c #07151F",
"#  c #0B141F",
"$  c #12111B",
"%  c #1A121B",
"&  c #22161D",
"*  c #26191E",
"=  c #2D1B1F",
"-  c #0B0C20",
";  c #160F20",
":  c #091521",
">  c #1D1621",
",  c #211521",
"<  c #271822",
"1  c #2C1B25",
"2  c #351C24",
"3  c #3A1F23",
"4  c #1D2121",
"5  c #222525",
"6  c #262A27",
"7  c #222729",
"8  c #25292C",
"9  c #2A2D2C",
"0  c #372121",
"q  c #3D2325",
"w  c #2E3333",
"e  c #313536",
"r  c #3A3030",
"t  c #323739",
"y  c #363B3A",
"u  c #3A3C3D",
"i  c #442125",
"p  c #452728",
"a  c #472B2D",
"s  c #4B2C2F",
"d  c #522E2C",
"f  c #44312E",
"g  c #4D3128",
"h  c #56332E",
"j  c #58302E",
"k  c #4F2F32",
"l  c #522F31",
"z  c #4E3331",
"x  c #533232",
"c  c #5A3732",
"v  c #5B3837",
"b  c #5A3739",
"n  c #5E3B3A",
"m  c #603C37",
"M  c #613D3C",
"N  c #3C413F",
"B  c #56413A",
"V  c #63423E",
"C  c #6A463D",
"Z  c #3C3C40",
"A  c #403F40",
"S  c #3E4141",
"D  c #424444",
"F  c #4F4544",
"G  c #464947",
"H  c #454749",
"J  c #454949",
"K  c #4C4D4D",
"L  c #5F4340",
"P  c #524845",
"I  c #5D4947",
"U  c #504748",
"Y  c #4E504F",
"T  c #4E4E51",
"R  c #514F51",
"E  c #4E5252",
"W  c #535455",
"Q  c #525658",
"!  c #545959",
"~  c #5A5C5D",
"^  c #6F4A42",
"/  c #654C4B",
"(  c #6E4E4A",
")  c #714C45",
"_  c #744F4B",
"`  c #75524A",
"'  c #78534B",
"]  c #5E5F60",
"[  c #5F6264",
"{  c #626264",
"}  c #6C6D6E",
"|  c #706F71",
" . c #6F7071",
".. c #747575",
"X. c #7B7C7D",
"o. c None",
/* pixels */
"o.o.o.o.o.o.o.o.o.o.o.o.o.o.o.o.o.o.o.o.o.o.o.o.o.o.o.o.o.o.",
"o.o.o.o.o.o.o.o.o.o.o.o.o.o.o.o.o.o.o.o.o.o.o.o.o.o.o.o.o.o.",
"o.o.o.N o.o.o.o.o.o.o.o.o.o.o.o.o.o.o.o.o.o.o.o.o.f o.o.o.o.",
"o.o.S W S { } | A ]  .} ..W R R W W G e R W X.! 8 W G o.o.o.",
"o.o.o.w 6 Y K E 9 t S y w e w w e w e 6 S G E u 4 w o.o.o.o.",
"o.o.o.u E u F I ( ` ' ) ) ) ` ^ C c V B P U D 6 Z E o.o.o.o.",
"o.o.o.Y G / ' ` ` ` ' ` ' ' ' ) C ) ` ` ` _ ( f S ] o.o.o.o.",
"o.o.o.{ Q f l d h M l c C h d d d d d n j x g f S E o.o.o.o.",
"o.o.o...[ B m x M M b d B M M k M M v x M M n B S E o.o.o.o.",
"o.o.o.~ T r h f k x l a x x x q l l p l x x k r Z ! o.o.o.o.",
"o.o.o.} ~ : < q 3 3 i 0 q i q = i 3 2 i i 2 ; : D ! o.o.o.o.",
"o.o.o.E G : O & 1 > 2 < * = % = * & 1 1 % + - : D E o.o.o.o.",
"o.o.o.G S # O O % & $ % % > + % + , + + O O - : u S o.o.o.o.",
"o.o.o.f H # O O . O O O X X . . o o O O - O - : B E o.o.o.o.",
"o.o.o.E H : X O O O O O O . . . o o X - O + - : S ! o.o.o.o.",
"o.o.o.E G @ O O . O   O O . . . o X X O X - - : S ! o.o.o.o.",
"o.o.o.E H : O O   O O O . . . . . . O O - - - : N ! o.o.o.o.",
"o.o.o.E H : X O O     + . . . . O O O O X X - : S ! o.o.o.o.",
"o.o.o.S Q : O O O O   O . . o O O O O O - X X : S ! o.o.o.o.",
"o.o.o.H Q # X O O   O O O . . o O O X O X X - : S J o.o.o.o.",
"o.o.o.G y : O O O   X O X o O X X O X - - - - : S ! o.o.o.o.",
"o.o.o.u 5 # X O O   O O X O X X - O - O O X X : S ! o.o.o.o.",
"o.o.o.Y D # O # O O O O O O O O X - O O - O - : S J o.o.o.o.",
"o.o.o.Y D # O O O # O O O O # O O O O O - + O : S D o.o.o.o.",
"o.o.o.e 5 : # O O O @ O # O O O O O O # O # O : t t o.o.o.o.",
"o.o.N J t } { ~ Y Z y Z J u H K R E G G S u y Z 8 u N o.o.o.",
"o.o.o.N o.o.o.o.o.o.o.o.o.o.o.o.o.o.o.o.o.o.o.o.o.N o.o.o.o.",
"o.o.o.o.o.o.o.o.o.o.o.o.o.o.o.o.o.o.o.o.o.o.o.o.o.o.o.o.o.o.",
"o.o.o.o.o.o.o.o.o.o.o.o.o.o.o.o.o.o.o.o.o.o.o.o.o.o.o.o.o.o.",
"o.o.o.o.o.o.o.o.o.o.o.o.o.o.o.o.o.o.o.o.o.o.o.o.o.o.o.o.o.o."
};
