/* XPM */
static char *result[] = {
/* columns rows colors chars-per-pixel */
"30 30 87 1 ",
"  c #2C1F1F",
". c #381F22",
"X c #1D2121",
"o c #222525",
"O c #2B2122",
"+ c #262A27",
"@ c #222729",
"# c #2D2729",
"$ c #262B2B",
"% c #2B2B2B",
"& c #372626",
"* c #3A2426",
"= c #352927",
"- c #382827",
"; c #3E272A",
": c #352A2A",
"> c #3A2929",
", c #282E30",
"< c #342F31",
"1 c #2F3333",
"2 c #313536",
"3 c #323739",
"4 c #363B3A",
"5 c #3A3C3D",
"6 c #432727",
"7 c #4A2525",
"8 c #492628",
"9 c #442D2C",
"0 c #4D2B2C",
"q c #512B2C",
"w c #44302E",
"e c #48332D",
"r c #433131",
"t c #4B3332",
"y c #493D3A",
"u c #563434",
"i c #5B3634",
"p c #553D37",
"a c #5C3936",
"s c #553E38",
"d c #5F3B3A",
"f c #603634",
"g c #613A36",
"h c #643D3A",
"j c #3C413F",
"k c #4C413F",
"l c #64423B",
"z c #6D453E",
"x c #70473D",
"c c #3D3D41",
"v c #403F40",
"b c #3E4142",
"n c #424444",
"m c #464947",
"M c #444749",
"N c #4A4549",
"B c #454949",
"V c #4C4D4D",
"C c #544B49",
"Z c #4E504F",
"A c #4E4E51",
"S c #514F51",
"D c #4D5252",
"F c #535455",
"G c #525658",
"H c #545959",
"J c #5B5C5D",
"K c #6E4641",
"L c #6D4A45",
"P c #714641",
"I c #734A43",
"U c #7A4E45",
"Y c #7E4F48",
"T c #7D5146",
"R c #7C5248",
"E c #5E5F60",
"W c #5F6264",
"Q c #626264",
"! c #676867",
"~ c #6B6D6D",
"^ c #716F71",
"/ c #6F7071",
"( c #737575",
") c #7B7C7D",
"_ c #824F48",
"` c #805143",
"' c None",
/* pixels */
"''''''''''''''''''''''''''''''",
"''''''''''''''''''''''''''''''",
"'''j'''''''''''''''''''''j''''",
"''bFbQ~^nJ(~(FSSFFN3SF)FoFM'''",
"'''1+ZVZ$3b42111111@bBD5X1''''",
"'''5F$%%pu0aauulau90%%$@cD''''",
"'''Zm=hITIqIRiiRUlhqahz9cH''''",
"'''QF:LRTIqIUiaRKRI0aR`pbD''''",
"'''(Q:xT`xqRRiaTRTxqfR`pbD''''",
"'''JV:PTRhqxTiiTRTIquRTpnH''''",
"'''/J:zRTiiTTIiR`RIqfRTpbH''''",
"'''ZM:zRTuiRTIqxTRIqhRTpjD''''",
"'''mm:zRRihRTIqx`RxqIR`p5b''''",
"'''5b:xRTigTTxqIRTIqI``pnF''''",
"'''CM:zTTuaTRI0IRUI0I`TpnG''''",
"'''Dm=zTU7xTTx0lURIqIRTpbH''''",
"'''SM:zRU7zTLk~ClYUuIT`sjH''''",
"'''AM:xRR7zIwc^B:K_iIRRpbG''''",
"'''bG=KRT7ak/1n1F<KagT`pnG''''",
"'''nF:xRh7e~DOOO5D9qiRIebB''''",
"'''M4-KRhqanN&0.nbr0iRUtbG''''",
"'''5@:xRhql:A!&nA<80iUIwbG''''",
"'''Vb:xRhqK9#E~M<wK0iUxrbM''''",
"'''Vn=KUh7zK8-:=6ggqfUPebn''''",
"'''3@%tet*etttttttt;rtt:33''''",
"''jm3~QJV555V5nAAAMMb545$5b'''",
"'''j'''''''''''''''''''''j''''",
"''''''''''''''''''''''''''''''",
"''''''''''''''''''''''''''''''",
"''''''''''''''''''''''''''''''"
};
