/* XPM */
static char *result[] = {
/* columns rows colors chars-per-pixel */
"50 50 45 1 ",
"  c #251C16",
". c #2A1C17",
"X c #261C19",
"o c #2B1E1B",
"O c #331E15",
"+ c #331E1C",
"@ c #391D1C",
"# c #27201B",
"$ c #2D221E",
"% c #332017",
"& c #32221D",
"* c #3A221D",
"= c #2D2422",
"- c #2E2925",
"; c #332625",
": c #3A2422",
"> c #332826",
", c #392925",
"< c #332729",
"1 c #342928",
"2 c #3B2D2B",
"3 c #3D312E",
"4 c #3E3232",
"5 c #412624",
"6 c #432C26",
"7 c #422E2C",
"8 c #41322F",
"9 c #443533",
"0 c #493633",
"q c #463835",
"w c #4B3A35",
"e c #463738",
"r c #463939",
"t c #4D3C3A",
"y c #513E3B",
"u c #4E413C",
"i c #52413E",
"p c #503B40",
"a c #554542",
"s c #594743",
"d c #564944",
"f c #584943",
"g c #564C48",
"h c #5B4B4B",
"j c None",
/* pixels */
"jjjjjjjjjjjjjjjjjjjjjjjjjjjjjjjjjjjjjjjjjjjjjjjjjj",
"jjjjjjjjjjjjj;+o+==+++=o$&jjjjjjj&:&&;&:;jjjjjjjjj",
"jjjjjjjjjjj*oXX XXXXXXXX  .#,j,$#  ##o    #jjjjjjj",
"jjjjjjjjj$##o$284877909+#=$##oo$$8998999q2&&*jjjjj",
"jjjjjjjj&###&-,u88700w0,;$=o#oo=;q0qqqqqq3,$$jjjjj",
"jjjjjjj+%#&483869e0000wp3$;====39qqqq0wwwqq&&jjjjj",
"jjjjjj+o%&,3u3u39007000p03;;==;9tqwqwiqqt0q$$jjjjj",
"jjjjj&oo&3uu886397907070ii1;=--tdqq0idwttww$$jjjjj",
"jjjjj$.139996u6u0000w660qt<;==;taiy0wywwwui&$jjjjj",
"jjjjjoX4qq0000u660060ww0qw;==;;psiiwwwwwuif&&jjjjj",
"jjjjj;X4rit00000u6000000ya;=o=;usyyeywyyiw3$&jjjjj",
"jjjjj=o4qit000008u00000uyi>X#=;tsettywyyi0,$&jjjjj",
"jjjjj&oerq0000000u0000ui9>-<<=opstttttsy8:*$&jjjjj",
"jjjjj&o9qq000wu6u6u600ui9;;-<==9tattyapy,,1$&jjjjj",
"jjjjj$o9qww00u0uu6u60wug4;;;;;-=#harah,<;;;$=jjjjj",
"jjjjj$o9eew0w0000u0uwiu91;;<;;;=<4444e1;111$&jjjjj",
"jjjjj$#900ww0w0w00u0uiu*-,>>&>>>-==<<2<;;<==$jjjjj",
"jjjjj&#ewwwwwwwwu0u0uiu,-->,->>><;=o=<-<<;<=;jjjjj",
"jjjjj=oqwwwwwwywwuu0uuu-,---;;>1>--=-<-->-;=&jjjjj",
"jjjjj& ew0wwwwwww6uuu,%,-,,&<;>><>--===<<<<=:jjjjj",
"jjjjjjoew0ywwwwwuwuu6*,->;1<;;<<>-<1<==--<=+:jjjjj",
"jjjjjjoe00wywyywww0uu*,-11;;<;><<<<<-<==-===:jjjjj",
"jjjjjj@0wwwwwwwyuwuiu,,->;;<<;<<<<<--<====o;;jjjjj",
"jjjjjj.0wwwywwywwwwfi6-,1;1<;<<<<;<;<;<;====;6jjjj",
"jjjjoqdww0ysywyw0uuig,,11;1;<<>>-<1-<<--==-;:88jjj",
"jjjj.3uwywysyywwuuuuu1&>;1>;>>><<<<1-1>>>;;>;,6jjj",
"jjjj ;>qt0ttwwyw00u,,-&>>>11<>>-<<<-<>><>>>>;$*jjj",
"jjjj#$;rtttwwywyuiu3,,>,1;;;><<<<<<<<<>>>>;>;$,jjj",
"jjjj#$;rwywwwywywsf6*--1<;><>><<111<<<><>;>--$;jjj",
"jjjj%$;rywywwwwywif6&>,->>>><><>1r424w<2e41--$&jjj",
"jjjjo=;tywywywiyiii0>>->>><>><<21r94qt23w4,--$:jjj",
"jjjjo=;ssywwyyiiiu,,;;><>>>;<><qp24rruwq14u1>#1jjj",
"jjjjo+;ytee9990qu8&->$-,--33<;<9949tpepr899--$,jjj",
"jjjj+;<1;:;>;::,1;&->---134u<<<<<ttpeptrt72--=,jjj",
"jjjjoo&;<;24,,98,&;$$--,3433,:<4epptttte87e1-$:jjj",
"jjjj+$$;;;3r21q9;,-$$---4u1-1;19rppptpte,9p--#:jjj",
"jjjj++o;1-129r33q3>=#==-131-2>122ptypt24r43--$;jjj",
"jjjj+&o=----4r<2r4>;==#=-$1-<>;<<reree23r42--$,jjj",
"jjjj:*+&==-->-<><1<-====$---<<<<<111<1te19u-;$&jjj",
"jjjjj*+o#====--->---==#=#-#->->-<<<;<1e4>4q>;$,jjj",
"jjjjjj@&&o$=#===-----$=o=oo=<->>>>;<<<-<<<;-=o:jjj",
"jjjjjjj+++o$$$##$$$$$$=+=+o====;<<-<-==<<-<<;=;jjj",
"jjjjjjj*++++&+$$$+oo$$+++++o$$==-=-==o=<-=;;-$*jjj",
"jjjjjjjj5*O@+++%++++%&*55,;++$$&============;&*jjj",
"jjjjjjjj5*@@@@@++O+@@@:jj5:++$$###==+==o===$o+*jjj",
"jjjjjjjjjjjjjjj5@@@O@:jjjjj:O%OO%&&+;++++++%+O*jjj",
"jjjjjjjjjjjjjjjjj*5*:jjjjjjjjj*%O+++:1++++&***5jjj",
"jjjjjjjjjjjjjjjjjjjjjjjjjjjjjjj*O++jjj@+++%%*6jjjj",
"jjjjjjjjjjjjjjjjjjjjjjjjjjjjjjjjjjjjjjjjjjjjjjjjjj",
"jjjjjjjjjjjjjjjjjjjjjjjjjjjjjjjjjjjjjjjjjjjjjjjjjj"
};
