/* XPM */
static char *result[] = {
/* columns rows colors chars-per-pixel */
"200 30 96 2 ",
"   c #060203",
".  c #0B0101",
"X  c #130101",
"o  c #140906",
"O  c #150709",
"+  c #160A0A",
"@  c #190B09",
"#  c #1A100E",
"$  c #1E1413",
"%  c #1F1B19",
"&  c #260103",
"*  c #2A0001",
"=  c #330101",
"-  c #201615",
";  c #241915",
":  c #2A1E17",
">  c #28171B",
",  c #241B19",
"<  c #2A1F1D",
"1  c #2B211C",
"2  c #2D2423",
"3  c #302623",
"4  c #322927",
"5  c #342A2A",
"6  c #37302B",
"7  c #3A312D",
"8  c #3D3331",
"9  c #420402",
"0  c #520103",
"q  c #760101",
"w  c #7B0101",
"e  c #710A0C",
"r  c #7E0A0B",
"t  c #413632",
"y  c #443A35",
"u  c #473C3A",
"i  c #483E3B",
"p  c #454036",
"a  c #4D433D",
"s  c #494442",
"d  c #514743",
"f  c #554B45",
"g  c #564C49",
"h  c #594E4A",
"j  c #5B514B",
"k  c #62554E",
"l  c #66594F",
"z  c #635652",
"x  c #655A52",
"c  c #685C56",
"v  c #6A5F59",
"b  c #6C6056",
"n  c #6B605A",
"m  c #72655E",
"M  c #75695D",
"N  c #79695F",
"B  c #726660",
"V  c #756A62",
"C  c #7A6D65",
"Z  c #7D7164",
"A  c #7E7269",
"S  c #880604",
"D  c #810C07",
"F  c #820A0C",
"G  c #800711",
"H  c #9E0F1A",
"J  c #AC0304",
"K  c #BE020E",
"L  c #B20D0E",
"P  c #AA110E",
"I  c #B0100B",
"U  c #A20C19",
"Y  c #B30D10",
"T  c #BB0E11",
"R  c #C60305",
"E  c #CE0303",
"W  c #D40001",
"Q  c #D90101",
"!  c #827466",
"~  c #827469",
"^  c #85786B",
"/  c #8A7B6D",
"(  c #8A7C71",
")  c #8E8074",
"_  c #8E8178",
"`  c #908275",
"'  c #94857A",
"]  c #97887B",
"[  c #9B8B7C",
"{  c #A08E7F",
"}  c #9E9182",
"|  c #A29485",
" . c #A59689",
".. c #A89788",
"X. c #A5988B",
"o. c None",
/* pixels */
"o.o.o.o.o.o.o.o.o.o.o.o.o.o.o.o.o.o.o.o.o.o.o.o.o.o.o.o.o.o.o.o.o.o.o.o.o.o.o.o.o.o.o.o.o.o.o.o.o.o.o.o.o.o.o.o.o.o.o.o.o.o.o.o.o.o.o.o.o.o.o.o.o.o.o.o.o.o.o.o.o.o.o.o.o.o.o.o.o.o.o.o.o.o.o.o.o.o.o.o.o.o.o.o.o.o.o.o.o.o.o.o.o.o.o.o.o.o.o.o.o.o.o.o.o.o.o.o.o.o.o.o.o.o.o.o.o.o.o.o.o.o.o.o.o.o.o.o.o.o.o.o.o.o.o.o.o.o.o.o.o.o.o.o.o.o.o.o.o.o.o.o.o.o.o.o.o.o.o.o.o.o.o.o.o.o.o.o.o.o.o.o.o.o.o.o.o.o.o.o.",
"o.o.o.o.o.o.o.o.o.o.o.o.o.o.o.o.o.o.o.o.o.o.o.o.o.o.o.o.o.o.o.o.o.o.o.o.o.o.o.o.o.o.o.o.o.o.o.o.o.o.o.o.o.o.o.o.o.o.o.o.o.o.o.o.o.o.o.o.o.o.o.o.o.o.o.o.o.o.o.o.o.o.o.o.o.o.o.o.o.o.o.o.o.o.o.o.o.o.o.o.o.o.o.o.o.o.o.o.o.o.o.o.o.o.o.o.o.o.o.o.o.o.o.o.o.o.o.o.o.o.o.o.o.o.o.o.o.o.o.o.o.o.o.o.o.o.o.o.o.o.o.o.o.o.o.o.o.o.o.o.o.o.o.o.o.o.o.o.o.o.o.o.o.o.o.o.o.o.o.o.o.o.o.o.o.o.o.o.o.o.o.o.o.o.o.o.o.o.o.o.",
"o.o.o.o.o.o.o.o.o.o.o.o.o.1 O X X . . . . . . X . . X - o.o.o.o.o.o.o.o.o.o.o.o.o.o.o.o.o.o.o.o.o.o.o.o.o.o.o.o.o.o.o.o.o.o.o.o.o.o.o.o.o.o.o.o.o.o.o.o.o.o.o.o.o.o.o.o.o.o.o.o.o.o.o.o.o.o.o.o.o.o.o.o.o.o.o.o.o.o.o.o.o.o.o.o.o.o.o.o.o.o.o.o.o.o.o.o.o.o.o.o.o.o.o.o.o.o.o.o.o.o.o.o.o.o.o.o.o.o.o.o.o.o.o.o.o.o.o.o.o.o.o.o.o.o.o.o.o.o.o.o.o.o.o.o.o.o.o.o.o.o.o.o.o.o.o.o.o.o.o.o.o.o.o.o.o.o.o.o.o.o.o.o.",
"o.o.o.o.o.o.o.o.o.o.o.o.@ $ X . . X . . . X . X X . . O O o.o.o.o.o.o.o.o.o.o.o.o.o.o.o.o.o.o.o.o.o.o.o.o.o.o.o.o.o.o.o.o.o.o.o.o.o.o.o.o.o.o.o.o.o.o.o.o.o.o.o.o.o.o.o.o.o.o.o.o.o.o.o.o.o.o.o.o.o.o.o.o.o.o.o.o.o.o.o.o.o.o.o.o.o.o.o.o.o.o.o.o.o.o.o.o.o.o.o.o.o.o.o.o.o.o.o.o.o.o.o.o.o.o.o.o.o.o.o.o.o.o.o.o.o.o.o.o.o.o.o.o.o.o.o.o.o.o.o.o.o.o.o.o.o.o.o.o.o.o.o.o.o.o.o.o.o.o.o.o.o.o.o.o.o.o.o.o.o.o.o.",
"o.o.o.o.o.o.o.o.o.o.1 @ X . 2 7 t f f f f f a t t 6 3 X X . o.o.o.o.o.o.o.o.o.o.o.o.o.o.o.o.o.o.o.o.o.o.o.o.o.o.o.o.o.o.o.o.o.o.o.o.o.o.o.o.o.o.o.o.o.o.o.o.o.o.o.o.o.o.o.o.o.o.o.o.o.o.o.o.o.o.o.o.o.o.o.o.o.o.o.o.o.o.o.o.o.o.o.o.o.o.o.o.o.o.o.o.o.o.o.o.o.o.o.o.o.o.o.o.o.o.o.o.o.o.o.o.o.o.o.o.o.o.o.o.o.o.o.o.o.o.o.o.o.o.o.o.o.o.o.o.o.o.o.o.o.o.o.o.o.o.o.o.o.o.o.o.o.o.o.o.o.o.o.o.o.o.o.o.o.o.o.o.o.o.",
"o.o.o.o.o.o.o.o.o.: X . . . k m ! ......| ..[ ! ~ M z . . . . o.o.o.o.o.o.o.o.o.o.o.o.o.o.o.o.o.o.o.o.o.o.o.o.o.o.o.o.o.o.o.o.o.o.o.o.o.o.o.o.o.o.o.o.o.o.o.o.o.o.o.o.o.o.o.o.o.o.o.o.o.o.o.o.o.o.o.o.o.o.o.o.o.o.o.o.o.o.o.o.o.o.o.o.o.o.o.o.o.o.o.o.o.o.o.o.o.o.o.o.o.o.o.o.o.o.o.o.o.o.o.o.o.o.o.o.o.o.o.o.o.o.o.o.o.o.o.o.o.o.o.o.o.o.o.o.o.o.o.o.o.o.o.o.o.o.o.o.o.o.o.o.o.o.o.o.o.o.o.o.o.o.o.o.o.o.o.o.o.",
"o.o.o.o.o.o.o.o.o.o . d x M [ } | ..] ( ( / / ! ~ ! Z M c d . . o.o.o.o.o.o.o.o.o.o.o.o.o.o.o.o.o.o.o.o.o.o.o.o.o.o.o.o.o.o.o.o.o.o.o.o.o.o.o.o.o.o.o.o.o.o.o.o.o.o.o.o.o.o.o.o.o.o.o.o.o.o.o.o.o.o.o.o.o.o.o.o.o.o.o.o.o.o.o.o.o.o.o.o.o.o.o.o.o.o.o.o.o.o.o.o.o.o.o.o.o.o.o.o.o.o.o.o.o.o.o.o.o.o.o.o.o.o.o.o.o.o.o.o.o.o.o.o.o.o.o.o.o.o.o.o.o.o.o.o.o.o.o.o.o.o.o.o.o.o.o.o.o.o.o.o.o.o.o.o.o.o.o.o.o.o.o.o.",
"o.o.o.o.o.o.o.o.@ . . h b V ] [ [ [ / ~ ! ! ! ! ~ ! ! V n j . . o.o.o.o.o.o.o.o.o.o.o.o.o.o.o.o.o.o.o.o.o.o.o.o.o.o.o.o.o.o.o.o.o.o.o.o.o.o.o.o.o.o.o.o.o.o.o.o.o.o.o.o.o.o.o.o.o.o.o.o.o.o.o.o.o.o.o.o.o.o.o.o.o.o.o.o.o.o.o.o.o.o.o.o.o.o.o.o.o.o.o.o.o.o.o.o.o.o.o.o.o.o.o.o.o.o.o.o.o.o.o.o.o.o.o.o.o.o.o.o.o.o.o.o.o.o.o.o.o.o.o.o.o.o.o.o.o.o.o.o.o.o.o.o.o.o.o.o.o.o.o.o.o.o.o.o.o.o.o.o.o.o.o.o.o.o.o.o.",
"o.o.o.o.o.o.o.o.@ . . g z z ~ ~ ! ! ! ! ! ! ! ~ ~ ~ A z z j . .   . . . . . . . . . . X .   . . .   . . .   . . . . .   . .   . .   . . . . . . .   . . . . .   . . . . .   .   .     . . .     .   .   .     .     .   .       . .     . .     . . . . . .   . .   . .   .   .   . .   .     . . . .   .   . .       . .   . . . .   .   . . . .   . . . . .     .   .   . . . . . . . 1 o.o.o.o.o.o.o.o.o.o.o.",
"o.o.o.o.o.o.o.o.@ - u < $ $ > a c x V ! ! A Z x x a , $ $ < u , .   o . X X X X X X X X X . X X X X X X X O X X X . X X X O X X X X X X X X . o X X . o . X X X . o . X X X . o X X X O X X X X X X X X X O X X X X X X X O X X X X X O X X X X X X X O . X X . X O . X . X o X X X . o O . X X X X X X X X X X X X X X O X X X X X X X X o . . . X X X X X X X X O X X X X . o o X X . X # o.o.o.o.o.o.o.o.o.o.",
"o.o.o.o.o.o.o.o.@ @ 5 h v Z A v f g c m M M v d f n Z A n j 5 # . X F F F r F F F F F F r D r F r F r G F F F r F r F F F F F G F F F F F F r D r F F r F F r r r F F F r r D r r F F F r F G F F F F F F F F G F G F F G F F G F F F F F F F F F F F G F r F F G F F F F D F F r F r r D D r r r r F F F D F G F r F F F F F G F F F F F F F F F F F G F F F F F F F G F r r r F D r   . o o.o.o.o.o.o.o.o.o.o.",
"o.o.o.o.o.o.o.o.@ @ - m ( | | ^ f f k c x c z g f ^ } } _ B $ o . X R W W W E E E E E E E E W W E E W W E E W W W W W W E E W E E E E E E E E W W W W W E E W W W W W W W W W W W W E E W W W E E E W W E E W W E E E W E W W W W W W E W W W W E E E E E W Q W Q E W W W W E Q W W W W Q W W W E W W E E E E W E E W W E W W E W W E E W W E W W W W E W E W W E W Q W W W W W Q E K 9 & X . o.o.o.o.o.o.o.o.o.",
"o.o.o.o.o.o.o.o.@ @ c x x x ! ] X.X._ Z l Z _  .X.' ~ c z z x 4 . X E E W W Q W W W W Q W Q W W Q Q Q W W Q W Q Q Q W W W W Q Q W W W W W W W W Q W W W Q Q Q W W W W W W W W W Q W W Q W W W W Q W W W W W W W E Q W W W Q W W W W W W W W W W W W Q W Q Q Q Q W Q W W W W Q W W W Q W W W Q W Q Q W W W W W W Q W Q W W Q Q Q W W W W W W W W W Q W W W Q Q W W W W Q Q W Q W W W W Q w X . o.o.o.o.o.o.o.o.o.",
"o.o.o.o.o.o.o.o.@ @ 7 8 7 8 a x Z Z M n l c M Z Z c d 8 8 7 7 % . O W W E W W W W W W W E W W W W E W W Q W W W W E W W W W W W W W W W W W W W W E W W W W E W W W W E W W W W E W W W W W W W W W W W W W W W W W W W W W W W W W W W W W W W Q W W W E E E E W W W W W W W W W W E W W W W W W W W W W W W W E W W W W W E W W W E W W W W W W E W W Q E W W W W W E E E W E W E Q E w . . o.o.o.o.o.o.o.o.o.",
"o.o.o.o.o.o.o.o.@ @ > O . . . 7 h g h h g h h g h t . .   O % o . O W W Q W W W W W W W Q W W W W W W W W W W W W W W W W W W W W W W W W W W W W W W W W W W W W W W W W W W W W W W W W Q W W W W W W W W W W W W W W W W W W W W W W W W W W W W W W W W Q W W W W W W W W W W W W W W W W W W W W W W W W W W W W W W W W W W W W W W W W W W W W W W W W W Q W W W W W W W Q W W W w . . o.o.o.o.o.o.o.o.o.",
"o.o.o.o.o.o.o.o.@ @ i ; X . X . .   .   .     . . . X . . % p % . X R W W W W W W W W W W W W W W W W W W W W W W W W W W W W W W W W W W W W W W W W W W W W W W W W W W W W W W W W W W W W W W W W W W W W W W Q W W W W W W W W W W W W W W W W W W W Q W W W W W W W W W W W W W W W W W W W W W W W W W W W W W W W W W W W W W W W W W W W W W W W W W W W W W W W W W W W Q Q E q . X o.o.o.o.o.o.o.o.o.",
"o.o.o.o.o.o.o.o.@ @ k 4 . X . . . . 5 7 . 8 5 . . X . X X 1 z 2 . X R W W W W W W W W W W W W W W W W W W W W W W W W Q W W W W W W W W Q W W W W W W W W W W W W W W W W W W W W W W W W W W W W W W W W W W W W W W W W W W W W W W W W W W W W W W W W W W W W W W W W W W W W W W W W W W W W W W W W W W W Q W W W W W W W W W W W W W W Q W W W W W W W W W W W W W W W W W E E Q w X . o.o.o.o.o.o.o.o.o.",
"o.o.o.o.o.o.o.o.@ @ g f s y @ X o 2 5 5 . 5 5 2 O . O 8 s g j 2   O W W W W W W W W W W W W W W W W W W W W W W W W W W W W W W W W W W W W W W W W W W W W W W W W W W W W W W W W W W W W W W W W W W W W W W W W W W W W W W W W W W W W W W W W W Q W W W W W W W W W W W W W W W W W W W W W W W W W W W W W W W W W W W W W W W W W W W W W W W W W W W W W W W W W W W W Q W Q E w . X o.o.o.o.o.o.o.o.o.",
"o.o.o.o.o.o.o.o.@ @ i C C l , O @ u 3 . . . 2 p $ O - x C C u , & = E Q W W W W W W W W W W W W W W Q W W W W W W W W W W W W W W W W W W W W W W W W W W W W W W W W W W Q W W W W W W W W W W W W W W W W W W W W W W W W W W W W W W W W W W W W W W W W W W Q W W W W W W W W W W W W W W W W W W W W W W W W W W W W W W W W W W W W W W W W W W W W W W W W W W W W W W Q E Q E Q w . . o.o.o.o.o.o.o.o.o.",
"o.o.o.o.o.o.o.o.@ @ O u B  .~ m x x 8 - i , 6 x k B A  .V p + . e Y E E W W W W W W W W W W W W W W W W W W W W W W W W W W W W W W W W W W W W W W W W W W W W W W W W W W W W W W Q W W W W W W W W W W W W W W W W Q W W W W W W W W W W W W W W W W W W W W W W W W W W W W W W W Q W W W W W W W W Q W W W W W W W W W W W W W W W W W W W W W W W Q W W W W W W W W W W W E Q E Q w X . o.o.o.o.o.o.o.o.o.",
"o.o.o.o.o.o.o.o.o.@ @ 2 h A b x c m j d n d j V x x b A h 2   r P W W W W W W W W W W W W W W W W W W W W W W W W W W W W W W W W W W W W W W W W Q W W W W W Q W W W W W W W W W W W W W Q W W W Q W W W W W W W W W W W W W Q W W W W W W W W W W W W W W W W W W W W W W W W W W W W W W W W W W W W Q W W W W W W W W W W W W W W W W W W W W W W W W W W W W W W W W W W W W E E S 0 X . o.o.o.o.o.o.o.o.o.",
"o.o.o.o.o.o.o.o.o.o.o.. 1 y y d z ! m x ^ v n ! x d u t 1 X . U R P Y Y L L L Y L I Y Y L Y Y Y L L L Y Y Y Y L L L Y L Y Y L L Y Y Y Y L L Y L L L L L L L L Y L L L L L L L L Y L L L L L L L L L I L L L L I L I L I L L I L I P I I L L L L L I L L L L L L L Y L L Y Y Y Y L L L Y L I L L L L L L L L L Y Y L Y L L Y L Y L L L L L L L L Y Y Y Y L Y Y Y L Y Y Y L L L L T Y H o   . o o.o.o.o.o.o.o.o.o.",
"o.o.o.o.o.o.o.o.o.o.o.o.. . . . 3 ..n a  .f c  .6 . . . . . . & & & * & * & & & & & * * * & * & * & & * & & * & * & * * & & & & & * * * * & * * & & & & & & & & * * * * & & * * & & & & * * & & & & & & & * * & & & & & & * & & * & * & & & * & & & & * * & * * & & & & * * & * * & * & & & & & * * * * & & * & & & * & & & * * * * & * * & & * & & & & * * & * * * & * * & * * & * & X . O o.o.o.o.o.o.o.o.o.o.",
"o.o.o.o.o.o.o.o.o.o.o.o.$ . X X 1 ) h y ` p f ) 3 . X . . X .       .   . .   . . . .           .     .   .     .   .       . .   .           .   . .   . .       .           . .         .           .   . . . . . . .     . . . . . . .   .   . . .   .     .     .     .           . . . .   .     .       .       .     .     .     .     .     . .   .       .     .     .         o o.o.o.o.o.o.o.o.o.o.o.",
"o.o.o.o.o.o.o.o.o.o.o.o.o.O . . ; m i 5 M 7 u m 1 X X O X o.o.o.o.o.o.o.o.o.o.o.o.o.o.o.o.o.o.o.o.o.o.o.o.o.o.o.o.o.o.o.o.o.o.o.o.o.o.o.o.o.o.o.o.o.o.o.o.o.o.o.o.o.o.o.o.o.o.o.o.o.o.o.o.o.o.o.o.o.o.o.o.o.o.o.o.o.o.o.o.o.o.o.o.o.o.o.o.o.o.o.o.o.o.o.o.o.o.o.o.o.o.o.o.o.o.o.o.o.o.o.o.o.o.o.o.o.o.o.o.o.o.o.o.o.o.o.o.o.o.o.o.o.o.o.o.o.o.o.o.o.o.o.o.o.o.o.o.o.o.o.o.o.o.o.o.o.o.o.o.o.o.o.o.o.o.o.o.o.o.o.",
"o.o.o.o.o.o.o.o.o.o.o.o.o.o.o . .   . . . . . . . . . o.o.o.o.o.o.o.o.o.o.o.o.o.o.o.o.o.o.o.o.o.o.o.o.o.o.o.o.o.o.o.o.o.o.o.o.o.o.o.o.o.o.o.o.o.o.o.o.o.o.o.o.o.o.o.o.o.o.o.o.o.o.o.o.o.o.o.o.o.o.o.o.o.o.o.o.o.o.o.o.o.o.o.o.o.o.o.o.o.o.o.o.o.o.o.o.o.o.o.o.o.o.o.o.o.o.o.o.o.o.o.o.o.o.o.o.o.o.o.o.o.o.o.o.o.o.o.o.o.o.o.o.o.o.o.o.o.o.o.o.o.o.o.o.o.o.o.o.o.o.o.o.o.o.o.o.o.o.o.o.o.o.o.o.o.o.o.o.o.o.o.o.o.",
"o.o.o.o.o.o.o.o.o.o.o.o.o.o.o.$ @ . . X . . . . @ # o.o.o.o.o.o.o.o.o.o.o.o.o.o.o.o.o.o.o.o.o.o.o.o.o.o.o.o.o.o.o.o.o.o.o.o.o.o.o.o.o.o.o.o.o.o.o.o.o.o.o.o.o.o.o.o.o.o.o.o.o.o.o.o.o.o.o.o.o.o.o.o.o.o.o.o.o.o.o.o.o.o.o.o.o.o.o.o.o.o.o.o.o.o.o.o.o.o.o.o.o.o.o.o.o.o.o.o.o.o.o.o.o.o.o.o.o.o.o.o.o.o.o.o.o.o.o.o.o.o.o.o.o.o.o.o.o.o.o.o.o.o.o.o.o.o.o.o.o.o.o.o.o.o.o.o.o.o.o.o.o.o.o.o.o.o.o.o.o.o.o.o.o.o.",
"o.o.o.o.o.o.o.o.o.o.o.o.o.o.o.o.o.o.o.o.o.o.o.o.o.o.o.o.o.o.o.o.o.o.o.o.o.o.o.o.o.o.o.o.o.o.o.o.o.o.o.o.o.o.o.o.o.o.o.o.o.o.o.o.o.o.o.o.o.o.o.o.o.o.o.o.o.o.o.o.o.o.o.o.o.o.o.o.o.o.o.o.o.o.o.o.o.o.o.o.o.o.o.o.o.o.o.o.o.o.o.o.o.o.o.o.o.o.o.o.o.o.o.o.o.o.o.o.o.o.o.o.o.o.o.o.o.o.o.o.o.o.o.o.o.o.o.o.o.o.o.o.o.o.o.o.o.o.o.o.o.o.o.o.o.o.o.o.o.o.o.o.o.o.o.o.o.o.o.o.o.o.o.o.o.o.o.o.o.o.o.o.o.o.o.o.o.o.o.o.",
"o.o.o.o.o.o.o.o.o.o.o.o.o.o.o.o.o.o.o.o.o.o.o.o.o.o.o.o.o.o.o.o.o.o.o.o.o.o.o.o.o.o.o.o.o.o.o.o.o.o.o.o.o.o.o.o.o.o.o.o.o.o.o.o.o.o.o.o.o.o.o.o.o.o.o.o.o.o.o.o.o.o.o.o.o.o.o.o.o.o.o.o.o.o.o.o.o.o.o.o.o.o.o.o.o.o.o.o.o.o.o.o.o.o.o.o.o.o.o.o.o.o.o.o.o.o.o.o.o.o.o.o.o.o.o.o.o.o.o.o.o.o.o.o.o.o.o.o.o.o.o.o.o.o.o.o.o.o.o.o.o.o.o.o.o.o.o.o.o.o.o.o.o.o.o.o.o.o.o.o.o.o.o.o.o.o.o.o.o.o.o.o.o.o.o.o.o.o.o.o.",
"o.o.o.o.o.o.o.o.o.o.o.o.o.o.o.o.o.o.o.o.o.o.o.o.o.o.o.o.o.o.o.o.o.o.o.o.o.o.o.o.o.o.o.o.o.o.o.o.o.o.o.o.o.o.o.o.o.o.o.o.o.o.o.o.o.o.o.o.o.o.o.o.o.o.o.o.o.o.o.o.o.o.o.o.o.o.o.o.o.o.o.o.o.o.o.o.o.o.o.o.o.o.o.o.o.o.o.o.o.o.o.o.o.o.o.o.o.o.o.o.o.o.o.o.o.o.o.o.o.o.o.o.o.o.o.o.o.o.o.o.o.o.o.o.o.o.o.o.o.o.o.o.o.o.o.o.o.o.o.o.o.o.o.o.o.o.o.o.o.o.o.o.o.o.o.o.o.o.o.o.o.o.o.o.o.o.o.o.o.o.o.o.o.o.o.o.o.o.o.o."
};
