/* XPM */
static char *result[] = {
/* columns rows colors chars-per-pixel */
"30 30 5 1 ",
"  c #080000",
". c #8F4D00",
"X c #FFE300",
"o c #FFFF32",
"O c None",
/* pixels */
"OOOOOOOOOOOOOOOOOOOOOOOOOOOOOO",
"OOOOOOOOOOOOOOOOOOOOOOOOOOOOOO",
"OOOOOOOOOOOOOOOOOOOOOOOOOOOOOO",
"OOOOOOOOOOOOOOOOOOOOOOOOOOOOOO",
"OOOOOOOOOOOOOOOOOOOOOOOOOOOOOO",
"OOOOOOOOOOOO      OOOOOOOOOOOO",
"OOOOOOOOOO  XXX  .  OOOOOOOOOO",
"OOOOOOOOO XoooooX .. OOOOOOOOO",
"OOOOOOOOO ooooooo XX OOOOOOOOO",
"OOOOOOOO XoooooooX.oo OOOOOOOO",
"OOOOOOOO ooooooooo.XX OOOOOOOO",
"OOOOOOOO ooooooooo.XX OOOOOOOO",
"OOOOOOO XoooooooooX.XX OOOOOOO",
"OOOOOOO ooooooooooo.XX OOOOOOO",
"OOOOOOO ooooooooooo.XX OOOOOOO",
"OOOOOOO XoooooooooX... OOOOOOO",
"OOOOOOOO ooooooooo .. OOOOOOOO",
"OOOOOOOO XoooooooX .. OOOOOOOO",
"OOOOOOOO .ooooooo. .. OOOOOOOO",
"OOOOOOOOO XXoooXX .. OOOOOOOOO",
"OOOOOOOOO .XXXXX. .. OOOOOOOOO",
"OOOOOOOOOO  ...  .  OOOOOOOOOO",
"OOOOOOOOOOOO      OOOOOOOOOOOO",
"OOOOOOOOOOOOOOOOOOOOOOOOOOOOOO",
"OOOOOOOOOOOOOOOOOOOOOOOOOOOOOO",
"OOOOOOOOOOOOOOOOOOOOOOOOOOOOOO",
"OOOOOOOOOOOOOOOOOOOOOOOOOOOOOO",
"OOOOOOOOOOOOOOOOOOOOOOOOOOOOOO",
"OOOOOOOOOOOOOOOOOOOOOOOOOOOOOO",
"OOOOOOOOOOOOOOOOOOOOOOOOOOOOOO"
};
