/* XPM */
static char *result[] = {
/* columns rows colors chars-per-pixel */
"30 30 5 1 ",
"  c #080000",
". c #8F4D00",
"X c #FFE300",
"o c #FFFF32",
"O c None",
/* pixels */
"OOOOOOOOOOOOOOOOOOOOOOOOOOOOOO",
"OOOOOOOOOOOOOOOOOOOOOOOOOOOOOO",
"OOOOOOOOOOOOOOOOOOOOOOOOOOOOOO",
"OOOOOOOOOOOOOOOOOOOOOOOOOOOOOO",
"OOOOOOOOOOOOOOOOOOOOOOOOOOOOOO",
"OOOOOOOOOOOOO      OOOOOOOOOOO",
"OOOOOOOOOOOO X .... OOOOOOOOOO",
"OOOOOOOOOOO XoX.XXXX OOOOOOOOO",
"OOOOOOOOOOO ooo.oooo OOOOOOOOO",
"OOOOOOOOOO XoooX.oooo OOOOOOOO",
"OOOOOOOOOO ooooo.XXXX OOOOOOOO",
"OOOOOOOOOO ooooo.XXXX OOOOOOOO",
"OOOOOOOOOO ooooo.oooo OOOOOOOO",
"OOOOOOOOOO ooooo.XXXX OOOOOOOO",
"OOOOOOOOOO ooooo.XXXX OOOOOOOO",
"OOOOOOOOOO ooooo.XXXX OOOOOOOO",
"OOOOOOOOOO ooooo.XXXX OOOOOOOO",
"OOOOOOOOOO ooooX XXX. OOOOOOOO",
"OOOOOOOOOO XooXX .... OOOOOOOO",
"OOOOOOOOOOO XXX .... OOOOOOOOO",
"OOOOOOOOOOO XXX .... OOOOOOOOO",
"OOOOOOOOOOOO X .... OOOOOOOOOO",
"OOOOOOOOOOOOO      OOOOOOOOOOO",
"OOOOOOOOOOOOOOOOOOOOOOOOOOOOOO",
"OOOOOOOOOOOOOOOOOOOOOOOOOOOOOO",
"OOOOOOOOOOOOOOOOOOOOOOOOOOOOOO",
"OOOOOOOOOOOOOOOOOOOOOOOOOOOOOO",
"OOOOOOOOOOOOOOOOOOOOOOOOOOOOOO",
"OOOOOOOOOOOOOOOOOOOOOOOOOOOOOO",
"OOOOOOOOOOOOOOOOOOOOOOOOOOOOOO"
};
