/* XPM */
static char *result[] = {
/* columns rows colors chars-per-pixel */
"30 30 5 1 ",
"  c #080000",
". c #8F4D00",
"X c #FFE300",
"o c #FFFF32",
"O c None",
/* pixels */
"OOOOOOOOOOOOOOOOOOOOOOOOOOOOOO",
"OOOOOOOOOOOOOOOOOOOOOOOOOOOOOO",
"OOOOOOOOOOOOOOOOOOOOOOOOOOOOOO",
"OOOOOOOOOOOOOOOOOOOOOOOOOOOOOO",
"OOOOOOOOOOOOOOOOOOOOOOOOOOOOOO",
"OOOOOOOOOOOOO     OOOOOOOOOOOO",
"OOOOOOOOOOOO ..... OOOOOOOOOOO",
"OOOOOOOOOOOO XXXXX OOOOOOOOOOO",
"OOOOOOOOOOOO ooooo OOOOOOOOOOO",
"OOOOOOOOOOOO XXXXX OOOOOOOOOOO",
"OOOOOOOOOOOO ooooo OOOOOOOOOOO",
"OOOOOOOOOOOO ooooo OOOOOOOOOOO",
"OOOOOOOOOOOO XXXXX OOOOOOOOOOO",
"OOOOOOOOOOOO ooooo OOOOOOOOOOO",
"OOOOOOOOOOOO XXXXX OOOOOOOOOOO",
"OOOOOOOOOOOO XXXXX OOOOOOOOOOO",
"OOOOOOOOOOOO XXXXX OOOOOOOOOOO",
"OOOOOOOOOOOO XXXXX OOOOOOOOOOO",
"OOOOOOOOOOOO XXXXX OOOOOOOOOOO",
"OOOOOOOOOOOO XXXXX OOOOOOOOOOO",
"OOOOOOOOOOOO ..... OOOOOOOOOOO",
"OOOOOOOOOOOO ..... OOOOOOOOOOO",
"OOOOOOOOOOOOO     OOOOOOOOOOOO",
"OOOOOOOOOOOOOOOOOOOOOOOOOOOOOO",
"OOOOOOOOOOOOOOOOOOOOOOOOOOOOOO",
"OOOOOOOOOOOOOOOOOOOOOOOOOOOOOO",
"OOOOOOOOOOOOOOOOOOOOOOOOOOOOOO",
"OOOOOOOOOOOOOOOOOOOOOOOOOOOOOO",
"OOOOOOOOOOOOOOOOOOOOOOOOOOOOOO",
"OOOOOOOOOOOOOOOOOOOOOOOOOOOOOO"
};
