/* XPM */
static char *result[] = {
/* columns rows colors chars-per-pixel */
"30 30 5 1 ",
"  c #080000",
". c #8F4D00",
"X c #FFE300",
"o c #FFFF32",
"O c None",
/* pixels */
"OOOOOOOOOOOOOOOOOOOOOOOOOOOOOO",
"OOOOOOOOOOOOOOOOOOOOOOOOOOOOOO",
"OOOOOOOOOOOOOOOOOOOOOOOOOOOOOO",
"OOOOOOOOOOOOOOOOOOOOOOOOOOOOOO",
"OOOOOOOOOOOOOOOOOOOOOOOOOOOOOO",
"OOOOOOOOOOOO      OOOOOOOOOOOO",
"OOOOOOOOOO  XXXX..  OOOOOOOOOO",
"OOOOOOOOO XooooooX.. OOOOOOOOO",
"OOOOOOOO XooooooooX.. OOOOOOOO",
"OOOOOOO XooooooooooX.. OOOOOOO",
"OOOOOOO oooooooooooo.. OOOOOOO",
"OOOOOO XooooooooooooX.. OOOOOO",
"OOOOOO oooooooooooooo.. OOOOOO",
"OOOOOO oooooooooooooo.. OOOOOO",
"OOOOOO oooooooooooooo.. OOOOOO",
"OOOOOO XooooooooooooX.. OOOOOO",
"OOOOOO XooooooooooooX.. OOOOOO",
"OOOOOOO oooooooooooo.. OOOOOOO",
"OOOOOOO XooooooooooX.. OOOOOOO",
"OOOOOOOO XXooooooXX.. OOOOOOOO",
"OOOOOOOOO XXXXXXXX.. OOOOOOOOO",
"OOOOOOOOOO  XXXX..  OOOOOOOOOO",
"OOOOOOOOOOOO      OOOOOOOOOOOO",
"OOOOOOOOOOOOOOOOOOOOOOOOOOOOOO",
"OOOOOOOOOOOOOOOOOOOOOOOOOOOOOO",
"OOOOOOOOOOOOOOOOOOOOOOOOOOOOOO",
"OOOOOOOOOOOOOOOOOOOOOOOOOOOOOO",
"OOOOOOOOOOOOOOOOOOOOOOOOOOOOOO",
"OOOOOOOOOOOOOOOOOOOOOOOOOOOOOO",
"OOOOOOOOOOOOOOOOOOOOOOOOOOOOOO"
};
