/* XPM */
static char *result[] = {
/* columns rows colors chars-per-pixel */
"30 30 5 1 ",
"  c #080000",
". c #8F4D00",
"X c #FFE300",
"o c #FFFF32",
"O c None",
/* pixels */
"OOOOOOOOOOOOOOOOOOOOOOOOOOOOOO",
"OOOOOOOOOOOOOOOOOOOOOOOOOOOOOO",
"OOOOOOOOOOOOOOOOOOOOOOOOOOOOOO",
"OOOOOOOOOOOOOOOOOOOOOOOOOOOOOO",
"OOOOOOOOOOOOOOOOOOOOOOOOOOOOOO",
"OOOOOOOOOOOO      OOOOOOOOOOOO",
"OOOOOOOOOOO .... X OOOOOOOOOOO",
"OOOOOOOOOO XXXX.XoX OOOOOOOOOO",
"OOOOOOOOOO oooo.ooo OOOOOOOOOO",
"OOOOOOOOO oooo.XoooX OOOOOOOOO",
"OOOOOOOOO XXXX.ooooo OOOOOOOOO",
"OOOOOOOOO XXXX.ooooo OOOOOOOOO",
"OOOOOOOOO oooo.ooooo OOOOOOOOO",
"OOOOOOOOO XXXX.ooooo OOOOOOOOO",
"OOOOOOOOO XXXX.ooooo OOOOOOOOO",
"OOOOOOOOO XXXX.ooooo OOOOOOOOO",
"OOOOOOOOO XXXX.ooooo OOOOOOOOO",
"OOOOOOOOO .XXX Xoooo OOOOOOOOO",
"OOOOOOOOO .... XXooX OOOOOOOOO",
"OOOOOOOOOO .... XXX OOOOOOOOOO",
"OOOOOOOOOO .... XXX OOOOOOOOOO",
"OOOOOOOOOOO .... X OOOOOOOOOOO",
"OOOOOOOOOOOO      OOOOOOOOOOOO",
"OOOOOOOOOOOOOOOOOOOOOOOOOOOOOO",
"OOOOOOOOOOOOOOOOOOOOOOOOOOOOOO",
"OOOOOOOOOOOOOOOOOOOOOOOOOOOOOO",
"OOOOOOOOOOOOOOOOOOOOOOOOOOOOOO",
"OOOOOOOOOOOOOOOOOOOOOOOOOOOOOO",
"OOOOOOOOOOOOOOOOOOOOOOOOOOOOOO",
"OOOOOOOOOOOOOOOOOOOOOOOOOOOOOO"
};
