/* XPM */
static char *result[] = {
/* columns rows colors chars-per-pixel */
"34 32 124 2 ",
"   c #010000",
".  c #090707",
"X  c #080807",
"o  c #0C0A09",
"O  c #110E0D",
"+  c #12100F",
"@  c #151210",
"#  c #191513",
"$  c #1C1916",
"%  c #1E1C19",
"&  c #201717",
"*  c #231B1A",
"=  c #2B1F1F",
"-  c #25221E",
";  c #29241F",
":  c #272420",
">  c #2A2421",
",  c #2D2A25",
"<  c #322525",
"1  c #302A26",
"2  c #322D29",
"3  c #3B2B2B",
"4  c #35322C",
"5  c #3A342E",
"6  c #3B3731",
"7  c #3E3933",
"8  c #412F2F",
"9  c #453232",
"0  c #4C3737",
"q  c #423D37",
"w  c #443E39",
"e  c #533C3C",
"r  c #46413A",
"t  c #4C443C",
"y  c #52463C",
"u  c #4F4A42",
"i  c #4D4B49",
"p  c #5C4343",
"a  c #534D45",
"s  c #5B4E43",
"d  c #565047",
"f  c #575148",
"g  c #5A544B",
"h  c #5F584E",
"j  c #604646",
"k  c #644949",
"l  c #6C5D4F",
"z  c #645D53",
"x  c #745555",
"c  c #7B5959",
"v  c #696157",
"b  c #6E665B",
"n  c #6F685D",
"m  c #756556",
"M  c #726A5F",
"N  c #6E6C68",
"B  c #766E62",
"V  c #786F63",
"C  c #7B7266",
"Z  c #77736E",
"A  c #7E7569",
"S  c #856161",
"D  c #886363",
"F  c #8F6868",
"G  c #976E6E",
"H  c #847161",
"J  c #81776B",
"K  c #847A6E",
"L  c #857E73",
"P  c #96816E",
"I  c #8B8173",
"U  c #9C8672",
"Y  c #9F8975",
"T  c #918778",
"R  c #968B7D",
"E  c #A08975",
"W  c #AD947F",
"Q  c #9A8F80",
"!  c #9D9283",
"~  c #9E968A",
"^  c #9E9B96",
"/  c #A19586",
"(  c #A59989",
")  c #A89C8C",
"_  c #B19882",
"`  c #ACA08F",
"'  c #BDA38B",
"]  c #AFA391",
"[  c #B2A594",
"{  c #B6A997",
"}  c #B6AA99",
"|  c #B9AC9A",
" . c #BEB3A3",
".. c #C9AD93",
"X. c #C0B29F",
"o. c #C4B6A2",
"O. c #C7B9A5",
"+. c #C9BBA7",
"@. c #CCBEAB",
"#. c #C3BDB4",
"$. c #D2C3AE",
"%. c #D5C6B1",
"&. c #D7C8B2",
"*. c #DACAB5",
"=. c #DECFB9",
"-. c #DFD1BC",
";. c #E0CFB9",
":. c #E1D1BB",
">. c #CFCAC5",
",. c #DFD4C5",
"<. c #E3D5C1",
"1. c #E6D9C6",
"2. c #E7DAC9",
"3. c #E9DECF",
"4. c #E1DBD2",
"5. c #EBE2D4",
"6. c #EEE6DA",
"7. c #F0E7DA",
"8. c #F0E9DE",
"9. c #F3EEE5",
"0. c #F4EFE8",
"q. c #F5F0E7",
"w. c #F5F0EA",
"e. c None",
/* pixels */
"e.e.e.e.e.e.e.e.e.e.e.e.e.e.e.e.e.e.e.e.e.e.e.e.e.e.e.e.e.e.e.e.e.e.",
"e.e.e.e.e.e.e.e.e.e.e.e.e.e.e.e.e.e.e.e.e.e.e.e.e.e.e.e.e.e.e.e.e.e.",
"e.e.e.e.e.e.e.e.e.e.e.e.e.e.e.e.e.e.e.e.e.e.e.e.e.e.e.e.e.e.e.e.e.e.",
"e.e.e.e.e.e.e.e.e.e.e.e.e.e.e.e.e.                  e.e.e.e.e.e.e.e.",
"e.e.e.e.e.e.e.e.e.e.e.e.e.e.e.      + - 2 4 , # .       e.e.e.e.e.e.",
"e.e.e.e.e.e.e.e.e.e.e.e.e.      , C [ @.o.{ [ [ R d +     e.e.e.e.e.",
"e.e.e.e.e.e.e.e.e.e.e.e.e.  . z @.1.;.L , # $ , g R R :     e.e.e.e.",
"e.e.e.e.e.e.e.e.e.e.e.e.  . N <.9.9.} # * 9 0 9 @ o w A *   e.e.e.e.",
"e.e.e.e.e.e.e.e.e.e.e.    w =.9.q.q.L * D > < F k S & 1 b .   e.e.e.",
"e.e.e.e.e.e.e.e.        o ) 6.w.q.5.b . j k   c p 8 x o B 7   e.e.e.",
"e.e.e.e.e.e.e.          r &.2.6.5.<.z . O j < < S . & o d I     e.e.",
"e.e.e.e.e.e.    o r r   u -.&. .| *.B * c & = . * - 5 * - ) *   e.e.",
"e.e.e.e.e.e.  + I =.!   7 $.z 6 Z z V @ c <       + Y W $ A a   e.e.",
"e.e.e.e.e.    n :.:.} o , R o i >.2 2 # .           t ..y 7 C     e.",
"e.e.e.      @ } :.2.,.r + v X X - . % 6             o U P $ K O   e.",
"e.e.    . o , $.1.9.w.^ . t ,     o = J o             y ' 1 n ,   e.",
"e.    + J K 7 &.2.0.0.4.4 + n # > e w [ u             # _ l a a   e.",
"e.    n :.( 6 $.2.0.0.q.~ o 6 C $ 6 t V [ #             H U 7 M   e.",
"e.  #  .7. ., X.2.0.0.0.5.z   v Q a z +.:.B             s ' 5 A X   ",
"e.  4 =.q.4.6 R 2.8.0.0.0.-.b : T ;.;.;.:.@.2           - m ; C +   ",
"e.  7 -.9.w.N g -.6.q.q.0.8.-.} z } ;.;.;.:.K       .   o < o B $   ",
"e.  4 *.9.w.#.7  .5.0.q.q.q.2.:.@.O.;.=.=.:.+.:   O <   O x o b %   ",
"e.  % +.6.w.6.! [ <.8.w.w.w.3.:.*.*.;.;.;.%.=.B   o j # @ G ; z %   ",
"e.  X / 1.5.1.:.=.=.,.5.5.5.:.:.O.R ;.;.;.%.o.} * & e 3 < c 3 z %   ",
"e.    h =.;.=.;.-.=.=.=.=.;.5.7.:.K | :.=.=./ o.z . 9 3 3 8 < T @   ",
"e.e.  $ { :.=.=.:.-.:.=.=.-.3.5.:.L K :.=.:.{ C { , @ # @ . z K     ",
"e.e.    w X.:.%.I R | &.:.:.:.:.:./ t %.:.:.*.f J { M z b ! / ,   e.",
"e.e.e.    : z b >   # r K { $.&.%.| > z +.&.-.R @ g ) +.[ b $     e.",
"e.e.e.e.                  @ 2 5 2 : o   - 7 t r o   o % o       e.e.",
"e.e.e.e.e.e.                                                  e.e.e.",
"e.e.e.e.e.e.e.e.e.e.e.e.e.        e.e.e.e.        e.e.e.e.e.e.e.e.e.",
"e.e.e.e.e.e.e.e.e.e.e.e.e.e.e.e.e.e.e.e.e.e.e.e.e.e.e.e.e.e.e.e.e.e."
};
