/* XPM */
static char *result[] = {
/* columns rows colors chars-per-pixel */
"34 32 124 2 ",
"   c #010000",
".  c #090707",
"X  c #080807",
"o  c #0C0A09",
"O  c #110E0D",
"+  c #12100F",
"@  c #151210",
"#  c #191513",
"$  c #1C1916",
"%  c #1E1C19",
"&  c #201717",
"*  c #231B1A",
"=  c #2B1F1F",
"-  c #25221E",
";  c #29241F",
":  c #272420",
">  c #2A2421",
",  c #2D2A25",
"<  c #322525",
"1  c #302A26",
"2  c #322D29",
"3  c #3B2B2B",
"4  c #35322C",
"5  c #3A342E",
"6  c #3B3731",
"7  c #3E3933",
"8  c #412F2F",
"9  c #453232",
"0  c #4C3737",
"q  c #423D37",
"w  c #443E39",
"e  c #533C3C",
"r  c #46413A",
"t  c #4C443C",
"y  c #52463C",
"u  c #4F4A42",
"i  c #4D4B49",
"p  c #5C4343",
"a  c #534D45",
"s  c #5B4E43",
"d  c #565047",
"f  c #575148",
"g  c #5A544B",
"h  c #5F584E",
"j  c #604646",
"k  c #644949",
"l  c #6C5D4F",
"z  c #645D53",
"x  c #745555",
"c  c #7B5959",
"v  c #696157",
"b  c #6E665B",
"n  c #6F685D",
"m  c #756556",
"M  c #726A5F",
"N  c #6E6C68",
"B  c #766E62",
"V  c #786F63",
"C  c #7B7266",
"Z  c #77736E",
"A  c #7E7569",
"S  c #856161",
"D  c #886363",
"F  c #8F6868",
"G  c #976E6E",
"H  c #847161",
"J  c #81776B",
"K  c #847A6E",
"L  c #857E73",
"P  c #96816E",
"I  c #8B8173",
"U  c #9C8672",
"Y  c #9F8975",
"T  c #918778",
"R  c #968B7D",
"E  c #A08975",
"W  c #AD947F",
"Q  c #9A8F80",
"!  c #9D9283",
"~  c #9E968A",
"^  c #9E9B96",
"/  c #A19586",
"(  c #A59989",
")  c #A89C8C",
"_  c #B19882",
"`  c #ACA08F",
"'  c #BDA38B",
"]  c #AFA391",
"[  c #B2A594",
"{  c #B6A997",
"}  c #B6AA99",
"|  c #B9AC9A",
" . c #BEB3A3",
".. c #C9AD93",
"X. c #C0B29F",
"o. c #C4B6A2",
"O. c #C7B9A5",
"+. c #C9BBA7",
"@. c #CCBEAB",
"#. c #C3BDB4",
"$. c #D2C3AE",
"%. c #D5C6B1",
"&. c #D7C8B2",
"*. c #DACAB5",
"=. c #DECFB9",
"-. c #DFD1BC",
";. c #E0CFB9",
":. c #E1D1BB",
">. c #CFCAC5",
",. c #DFD4C5",
"<. c #E3D5C1",
"1. c #E6D9C6",
"2. c #E7DAC9",
"3. c #E9DECF",
"4. c #E1DBD2",
"5. c #EBE2D4",
"6. c #EEE6DA",
"7. c #F0E7DA",
"8. c #F0E9DE",
"9. c #F3EEE5",
"0. c #F4EFE8",
"q. c #F5F0E7",
"w. c #F5F0EA",
"e. c None",
/* pixels */
"e.e.e.e.e.e.e.e.e.e.e.e.e.e.e.e.e.e.e.e.e.e.e.e.e.e.e.e.e.e.e.e.e.e.",
"e.e.e.e.e.e.e.e.e.e.e.e.e.e.e.e.e.e.e.e.e.e.e.e.e.e.e.e.e.e.e.e.e.e.",
"e.e.e.e.e.e.e.e.e.e.e.e.e.e.e.e.e.e.e.e.e.e.e.e.e.e.e.e.e.e.e.e.e.e.",
"e.e.e.e.e.e.e.e.                  e.e.e.e.e.e.e.e.e.e.e.e.e.e.e.e.e.",
"e.e.e.e.e.e.      . # , 4 4 - O       e.e.e.e.e.e.e.e.e.e.e.e.e.e.e.",
"e.e.e.e.e.    + s R ] ] { X.@.{ C ,       e.e.e.e.e.e.e.e.e.e.e.e.e.",
"e.e.e.e.    : R R g , $ # , L :.1.@.z .   e.e.e.e.e.e.e.e.e.e.e.e.e.",
"e.e.e.e.  * J q O @ 9 0 8 = # } 9.9.<.b .   e.e.e.e.e.e.e.e.e.e.e.e.",
"e.e.e.  X b , * S k F < = D = L 9.w.9.-.w     e.e.e.e.e.e.e.e.e.e.e.",
"e.e.e.  7 M o x 8 y x . k j   b 6.0.w.7.) o         e.e.e.e.e.e.e.e.",
"e.e.    I d o *   S 3 < j O . v <.5.7.2.*.r           e.e.e.e.e.e.e.",
"e.e.  * ) ; $ 8 = * . = & x * B *.| | *.=.u   r r o     e.e.e.e.e.e.",
"e.e.  a A $ W U @       < c + C z Z 6 z $.7   ! =.I +   e.e.e.e.e.e.",
"e.    C 7 y ..t         .   # 2 2 >.i X R , o } :.:.b     e.e.e.e.e.",
"e.  + K $ P U o             7 %   - X X z O r <.2.:.{ @       e.e.e.",
"e.  2 b 1 ' y             o J - o     2 u X ^ w.9.2.$.2 o .     e.e.",
"e.  a a l _ #             a [ q p > $ N + 4 4.w.0.2.&.7 A K +     e.",
"e.  M 7 Y H             # ` C t 5 $ B 5 X ~ w.0.0.2.$.5 ( <.M     e.",
"  X C 5 ' s             B :.O.v a R z . z 5.0.0.0.2. .2  .6. .#   e.",
"  + C ; m -           2 @.-.:.;.=.T : v =.9.0.0.9.<.R 5 4.w.*.4   e.",
"  $ B . < o   .       K :.;.=.:.{ z { :.9.9.0.0.8.:.f N w.9.-.7   e.",
"  % b o x @   3 o   : @.:.=.;.;.O.$.:.2.9.0.0.0.5.o.7 #.w.9.*.4   e.",
"  % z = G # # j o   M =.%.;.;.:.*.*.;.3.0.0.0.8.<.{ ! 6.w.6.+.%   e.",
"  $ z 3 c < 3 e $ & | o.$.:.=.=.R O.:.<.3.6.5.<.=.=.-.2.5.2./ X   e.",
"  @ T , 3 3 3 8 o h o./ =.=.:.| K :.6.5.-.=.=.=.=.=.=.;.=.;.z     e.",
"    I z . # # O , } C { :.=.:.K K :.5.3.;.=.=.:.:.:.;.;.:.{ $   e.e.",
"e.  , / Q M z M } K f *.:.:.$.t / :.:.:.:.:.*.| T T $.:.X.7     e.e.",
"e.    $ b [ +.) g @ R :.*.+.z : | %.&.$.| K w #   : M z -     e.e.e.",
"e.e.      o % o   o w t 7 -   o : 2 4 4 @                   e.e.e.e.",
"e.e.e.                                                  e.e.e.e.e.e.",
"e.e.e.e.e.e.e.e.e.        e.e.e.e.        e.e.e.e.e.e.e.e.e.e.e.e.e.",
"e.e.e.e.e.e.e.e.e.e.e.e.e.e.e.e.e.e.e.e.e.e.e.e.e.e.e.e.e.e.e.e.e.e."
};
