/* XPM */
static char *result[] = {
/* columns rows colors chars-per-pixel */
"30 32 115 2 ",
"   c #000000",
".  c #00000A",
"X  c #000010",
"o  c #000021",
"O  c #00002D",
"+  c #0F1429",
"@  c #11152A",
"#  c #000C38",
"$  c #101632",
"%  c #131934",
"&  c #171D3A",
"*  c #181D3A",
"=  c #232844",
"-  c #292E4C",
";  c #2E334F",
":  c #32354C",
">  c #373A4F",
",  c #2F3452",
"<  c #303555",
"1  c #343956",
"2  c #353A59",
"3  c #393E5C",
"4  c #333F77",
"5  c #3E425D",
"6  c #3E4670",
"7  c #424554",
"8  c #494D5F",
"9  c #414661",
"0  c #474A60",
"q  c #4A4D60",
"w  c #4E5164",
"e  c #4C516F",
"r  c #515466",
"t  c #53566C",
"y  c #57596E",
"u  c #595C6F",
"i  c #484F76",
"p  c #4A5178",
"a  c #555970",
"s  c #5A5D74",
"d  c #5D6073",
"f  c #5F637B",
"g  c #63646A",
"h  c #636677",
"j  c #6C6D75",
"k  c #6C6D78",
"l  c #72737B",
"z  c #4D5582",
"x  c #545C85",
"c  c #575E88",
"v  c #5A6086",
"b  c #5A628C",
"n  c #5F6692",
"m  c #656B92",
"M  c #696F93",
"N  c #656D9A",
"B  c #686F9C",
"V  c #6B7197",
"C  c #6A729D",
"Z  c #747996",
"A  c #7B7E94",
"S  c #70769B",
"D  c #7A7F9B",
"F  c #6D74A1",
"G  c #767CA5",
"H  c #787EA4",
"J  c #7D819B",
"K  c #7A81A7",
"L  c #7D83AB",
"P  c #818391",
"I  c #888A98",
"U  c #878BA5",
"Y  c #898CA2",
"T  c #858AAC",
"R  c #8A8EAA",
"E  c #8E92AC",
"W  c #9094AF",
"Q  c #8D92B3",
"!  c #9196B2",
"~  c #9599B4",
"^  c #9A9DB6",
"/  c #969BBA",
"(  c #9A9EBB",
")  c #9EA2BD",
"_  c #A1A5BC",
"`  c #9FA3C0",
"'  c #A1A6C2",
"]  c #A6A9C4",
"[  c #AAADC6",
"{  c #A4A9C8",
"}  c #ABAFCA",
"|  c #AEB1C7",
" . c #AFB2C9",
".. c #B2B5CC",
"X. c #B5B8CD",
"o. c #BABCCB",
"O. c #BABED5",
"+. c #BFC0CB",
"@. c #BEC2D9",
"#. c #C2C4CD",
"$. c #C4C6D5",
"%. c #C9CAD3",
"&. c #CBCDDB",
"*. c #CED0DD",
"=. c #D2D4DE",
"-. c #D4D5E1",
";. c #DCDDE6",
":. c #DFDFE8",
">. c #DFE0E9",
",. c #E2E3EA",
"<. c #E7E8EE",
"1. c #E9E9EF",
"2. c #E7E8F0",
"3. c #EAEBF1",
"4. c None",
/* pixels */
"4.4.4.4.4.4.4.4.4.4.                        4.4.4.4.4.4.4.4.",
"4.4.4.4.4.4.4.4.4.4.0 d k l l l l l l k s 8 4.4.4.4.4.4.4.4.",
"4.4.4.4.4.4.4.4.  : Z ) #.%.%.%.%.%.%.#._ Z :   4.4.4.4.4.4.",
"4.4.4.4.4.4.4.4.> J ] &.:.3.3.2.2.3.3.>.&.] A > 4.4.4.4.4.4.",
"4.4.4.4.4.4.  8 J [ &.;.>.,.>.,.>.,.,.,.;.%.[ J 8   4.4.4.4.",
"4.4.4.4.4.4.  s ~ @.;.,.,.>.>.>.:.:.;.>.2.;.@.! s   4.4.4.4.",
"4.4.4.4.4.4.  t E O.;.<.,.;.>.>.>.>.>.,.2.;.O.Q t   4.4.4.4.",
"4.4.4.4.4.4.  t E X.$.=.;.,.,.,.>.>.,.;.-.$.X.E t   4.4.4.4.",
"4.4.4.4.4.4.  u ^ ] T ) *.<.,.,.,.,.<.=.) T ] ( u   4.4.4.4.",
"4.4.4.4.4.4.  t E / V T $.;.-.-.-.=.;.$.T N / E t   4.4.4.4.",
"4.4.4.4.4.4.  5 M T Q )  .X. . .} ..X.} _ Q T M 5   4.4.4.4.",
"4.4.4.4.4.4.  < z H ) [ ` ` [  .| [ ` ` [ ) H z ,   4.4.4.4.",
"4.4.4.4.4.4.  1 x K ( ] `  .&.;.;.&...) ] ( K x 1   4.4.4.4.",
"4.4.4.4.4.4.  2 c L ( ] `  .*.;.;.*...) { ( L c 1   4.4.4.4.",
"4.4.4.4.4.4.  2 b L ` [ ] ]  .X.....] ' [ ` L b 2   4.4.4.4.",
"4.4.4.4.4.4.  - p C Q ' ' ] ` ` ) _ ] ' ' Q S p -   4.4.4.4.",
"4.4.4.4.4.4.    * e B Q ' [ [ ] ] [ [ ' Q B e &     4.4.4.4.",
"4.4.4.4.4.4.t 8 . O 6 M T ~ ~ / / ~ ~ T M 6 O . q t 4.4.4.4.",
"4.4.4.4.  r E U =   O > 7 a m C F m a 7 > O   = Y E r   4.4.",
"4.4.4.4.  f ' [ I g 7 # o 9 D ! ! H 9 X # 7 g I [ ` f   4.4.",
"4.4.4.4.  s ( O.=.#.I 4 4 D o.-.-.o.D 4 4 I #.=.@./ s   4.4.",
"4.4.4.4.  q J [ %.%./ F C ( -.3.3.-.( C F / %.&.[ J q   4.4.",
"4.4.4.4.4.4.q h j P ~ ` / ..=.<.<.-.| / ` ~ P j h 8 4.4.4.4.",
"4.4.4.4.4.4.      , T ' / | =.<.<.-.} / ' R ,       4.4.4.4.",
"4.4.4.4.4.4.4.4.  2 m G N ! =.3.3.*.! N L V 3   4.4.4.4.4.4.",
"4.4.4.4.4.4.4.4.  5 V G B ! $.;.;.&.! n b i , . 4.4.4.4.4.4.",
"4.4.4.4.4.4.4.4.  a ! { ) ] ..O.O.X.[ R a o $ @ 4.4.4.4.4.4.",
"4.4.4.4.4.4.4.4.  w Y _ ^ ! W E R ! ` ! s O % @ 4.4.4.4.4.4.",
"4.4.4.4.4.4.4.4.4.4.w d s y t t q v K K C x 1 . 4.4.4.4.4.4.",
"4.4.4.4.4.4.4.4.4.4.              # i n M v 1   4.4.4.4.4.4.",
"4.4.4.4.4.4.4.4.4.4.4.4.4.4.4.4.4.4.: 3 3 1 4.4.4.4.4.4.4.4.",
"4.4.4.4.4.4.4.4.4.4.4.4.4.4.4.4.4.4.. . . . 4.4.4.4.4.4.4.4."
};
