/* XPM */
static char *result[] = {
/* columns rows colors chars-per-pixel */
"30 32 156 2 ",
"   c #000000",
".  c #00000A",
"X  c #100000",
"o  c #00001E",
"O  c #000032",
"+  c #262838",
"@  c #770000",
"#  c #000041",
"$  c #171F45",
"%  c #002A42",
"&  c #112052",
"*  c #1E2751",
"=  c #222741",
"-  c #222842",
";  c #2B2F47",
":  c #2F324D",
">  c #333545",
",  c #31344B",
"<  c #2B3255",
"1  c #313652",
"2  c #343954",
"3  c #3D3F51",
"4  c #373D5D",
"5  c #3A3F5C",
"6  c #3D425D",
"7  c #3E4364",
"8  c #3E456B",
"9  c #494A54",
"0  c #41455E",
"q  c #484A5D",
"w  c #53545D",
"e  c #6D4F5F",
"r  c #4B4D62",
"t  c #424768",
"y  c #415361",
"u  c #4E5166",
"i  c #545663",
"p  c #535669",
"a  c #57596D",
"s  c #5D5E6B",
"d  c #424974",
"f  c #4B5378",
"g  c #5A5D72",
"h  c #51577B",
"j  c #555A7E",
"k  c #5F6173",
"l  c #5E6178",
"z  c #56657D",
"x  c #64656C",
"c  c #69696C",
"v  c #6B6C75",
"b  c #6E6F7B",
"n  c #626471",
"m  c #6F717B",
"M  c #72737C",
"N  c #AE6572",
"B  c #4D5685",
"V  c #4E5789",
"C  c #4F598F",
"Z  c #545B83",
"A  c #595F84",
"S  c #555E8F",
"D  c #5B638E",
"F  c #5C6594",
"G  c #656A8B",
"H  c #677388",
"J  c #6A718F",
"K  c #747681",
"L  c #777982",
"P  c #7A7A82",
"I  c #646B95",
"U  c #696F92",
"Y  c #676F9F",
"T  c #686F9A",
"R  c #677092",
"E  c #6C7295",
"W  c #6B729B",
"Q  c #767A91",
"!  c #70779F",
"~  c #73799E",
"^  c #797D99",
"/  c #6E76A3",
"(  c #747AA2",
")  c #797FA5",
"_  c #7F808A",
"`  c #7D819F",
"'  c #7D83A7",
"]  c #7E84AA",
"[  c #81828D",
"{  c #878992",
"}  c #83869E",
"|  c #898B94",
" . c #8F909D",
".. c #8589A5",
"X. c #8287AA",
"o. c #858BAC",
"O. c #8A8FAE",
"+. c #8286A3",
"@. c #8D91AD",
"#. c #8E93B3",
"$. c #9297B3",
"%. c #969AB4",
"&. c #9B9EB5",
"*. c #969BB9",
"=. c #9A9EBB",
"-. c #9DA0B7",
";. c #9DA1BD",
":. c #A3A4AD",
">. c #A1A3B7",
",. c #A3A5BB",
"<. c #A6A9BE",
"1. c #B5B5BC",
"2. c #CC98A2",
"3. c #9FA3C0",
"4. c #A2A6C2",
"5. c #A6AAC4",
"6. c #AAADC6",
"7. c #AAAEC9",
"8. c #AEB1C7",
"9. c #ADB1CA",
"0. c #B6B7C0",
"q. c #BCBEC4",
"w. c #B2B5CB",
"e. c #B6BACF",
"r. c #BDBFCA",
"t. c #B0B4D1",
"y. c #B7BAD2",
"u. c #B9BCD3",
"i. c #BEC4CE",
"p. c #BFC2D4",
"a. c #C2C3CD",
"s. c #C4C6D2",
"d. c #C6C8D4",
"f. c #CACCD4",
"g. c #C3C5D8",
"h. c #C5C8DA",
"j. c #CACDDC",
"k. c #D6CCD6",
"l. c #CED1DD",
"z. c #D1D1D7",
"x. c #D3D3DA",
"c. c #D7D8DE",
"v. c #CCCEE2",
"b. c #D4D5E2",
"n. c #D7D8E2",
"m. c #DBDCE4",
"M. c #DDDEE9",
"N. c #DFE0EB",
"B. c #E2E3EB",
"V. c #E7E8EE",
"C. c #E5E6F2",
"Z. c #E7E8F0",
"A. c #E9EAF2",
"S. c #EFF0F8",
"D. c #F0F1FA",
"F. c None",
/* pixels */
"F.F.F.F.F.F.F.F.F.F.                        F.F.F.F.F.F.F.F.",
"F.F.F.F.F.F.F.F.F.F.v P M M M M M v a u a p F.F.F.F.F.F.F.F.",
"F.F.F.F.F.F.F.F.  w 1.x.f.f.d.f.f.i.&...%.} 3   F.F.F.F.F.F.",
"F.F.F.F.F.F.F.F.w :.m.S.Z.Z.V.V.Z.N.h.w.t.;.Q 3 F.F.F.F.F.F.",
"F.F.F.F.F.F.  v 1.n.N.B.B.B.B.B.V.V.M.v.w.;.;.} r   F.F.F.F.",
"F.F.F.F.F.F.  P c.D.B.m.m.B.B.m.b.b.m.x.w.4.9.=.l   F.F.F.F.",
"F.F.F.F.F.F.  P f.Z.B.B.B.B.V.m.p.w.w.9.5.4.7.%.a   F.F.F.F.",
"F.F.F.F.F.F.  L f.V.B.m.n.c.n.h.6.*.=.,.4.5.7.$.a   F.F.F.F.",
"F.F.F.F.F.F.  L f.Z.V.m.g.w.9.6.4.4.5.5.5.6.7.$.a   F.F.F.F.",
"F.F.F.F.F.F.  L f.Z.N.d.&.O.5.8.6.3.&.*.*.;.5.$.a   F.F.F.F.",
"F.F.F.F.F.F.  P z.V.v.,.l L a.b.y.*.] W W X.5.&.g   F.F.F.F.",
"F.F.F.F.F.F.  M s.l.4.J   x z.B.9.O.' W W ' *.@.p   F.F.F.F.",
"F.F.F.F.F.F.  k ,.5.H %   M x.m.$.W #.;.=.$.o.U 6   F.F.F.F.",
"F.F.F.F.F.F.  l <.,.e X   v s.l.#.( ;.9.9.;.) V 1   F.F.F.F.",
"F.F.F.F.F.F.  L l.k.N @   y >.t.3.=.4.7.7.;.X.D 4   F.F.F.F.",
"F.F.F.F.F.F.  m i.k.2.N e z @.5.5.5.;.&.;.#.~ f <   F.F.F.F.",
"F.F.F.F.F.F.  6 U >.k.k.>.o.$.4.7.4.o.( ] ~ h - F.F.F.F.F.F.",
"F.F.F.F.F.F.  0 E ;.s.l.s.u.u.7.;...W S D f =   F.F.F.F.F.F.",
"F.F.F.F.F.F.  L s.j.{ { f.C.C.d.P < B V 8 ; F.F.F.F.F.F.F.F.",
"F.F.F.F.F.F.  m a.q.> + 1.c.c.0.k * +...q   F.F.F.F.F.F.F.F.",
"F.F.F.F.F.F.    w w     9 x c n d ' g.a.m   F.F.F.F.F.F.F.F.",
"F.F.F.F.F.F.m M x x M M x w > 7 F ,.M.c.P   F.F.F.F.F.F.F.F.",
"F.F.F.F.  v 0.l.z.f.x.z.z.i.>.#.$.w.M.z.P   F.F.F.F.F.F.F.F.",
"F.F.F.F.  [ n.S.C.m.z.x.M.b.9.*.*.w.M.z.P   F.F.F.F.F.F.F.F.",
"F.F.F.F.  [ m.A.v.<.K b ,.7.o./ T =.B.n.P   F.F.F.F.F.F.F.F.",
"F.F.F.F.  v q.f.-.^ s K <.5.) S S X.a.q.L O F.F.F.F.F.F.F.F.",
"F.F.F.F.F.F.M b , m 1.c.B.j.@.F Y U b v G Z 1   F.F.F.F.F.F.",
"F.F.F.F.F.F.    o [ j.B.n.i.} B I f # & I T 7   F.F.F.F.F.F.",
"F.F.F.F.F.F.  r ..5.u.w. .x r < < t Z I / I 7   F.F.F.F.F.F.",
"F.F.F.F.F.F.  p @.,.*.^ $         : A U I j ,   F.F.F.F.F.F.",
"F.F.F.F.F.F.F.F.p g g r F.F.F.F.F.F.2 5 5 2 F.F.F.F.F.F.F.F.",
"F.F.F.F.F.F.F.F.        F.F.F.F.F.F.. . . . F.F.F.F.F.F.F.F."
};
