/* XPM */
static char *result[] = {
/* columns rows colors chars-per-pixel */
"30 32 115 2 ",
"   c #000000",
".  c #00000A",
"X  c #000010",
"o  c #000022",
"O  c #00002D",
"+  c #0F1429",
"@  c #11152A",
"#  c #000C38",
"$  c #101632",
"%  c #141934",
"&  c #171D3A",
"*  c #181D3A",
"=  c #232844",
"-  c #292E4C",
";  c #2E334F",
":  c #32354C",
">  c #373A4F",
",  c #2F3452",
"<  c #303555",
"1  c #343956",
"2  c #353A59",
"3  c #393E5C",
"4  c #333F77",
"5  c #3E425D",
"6  c #3E4670",
"7  c #424554",
"8  c #494D5F",
"9  c #414661",
"0  c #474A60",
"q  c #4A4D60",
"w  c #4E5164",
"e  c #4C516F",
"r  c #515466",
"t  c #53566C",
"y  c #575A6E",
"u  c #595C6F",
"i  c #484F76",
"p  c #4A5178",
"a  c #555970",
"s  c #5A5D74",
"d  c #5D6073",
"f  c #5F637B",
"g  c #63646A",
"h  c #636677",
"j  c #6C6D75",
"k  c #6C6D78",
"l  c #72737B",
"z  c #4D5582",
"x  c #545C85",
"c  c #575E88",
"v  c #5A6085",
"b  c #5A628C",
"n  c #5F6692",
"m  c #656B92",
"M  c #696F93",
"N  c #656D9A",
"B  c #686F9C",
"V  c #6B7197",
"C  c #6A729D",
"Z  c #747996",
"A  c #7B7E94",
"S  c #70769B",
"D  c #7A7F9B",
"F  c #6D74A1",
"G  c #767CA5",
"H  c #787EA4",
"J  c #7D819B",
"K  c #7A81A7",
"L  c #7D83AB",
"P  c #818391",
"I  c #888A98",
"U  c #878BA5",
"Y  c #898CA2",
"T  c #858AAC",
"R  c #8A8EAA",
"E  c #8E92AC",
"W  c #9094AF",
"Q  c #8D92B3",
"!  c #9196B2",
"~  c #9599B4",
"^  c #9A9DB6",
"/  c #969BBA",
"(  c #9A9EBB",
")  c #9EA2BD",
"_  c #A1A5BC",
"`  c #9FA3C0",
"'  c #A1A6C2",
"]  c #A6A9C4",
"[  c #AAADC6",
"{  c #A4A8C8",
"}  c #ABAFCA",
"|  c #AEB1C7",
" . c #AFB2C9",
".. c #B2B5CC",
"X. c #B5B8CD",
"o. c #BABCCB",
"O. c #BABED5",
"+. c #BFC0CB",
"@. c #BEC2D9",
"#. c #C2C4CD",
"$. c #C4C6D5",
"%. c #C9CAD3",
"&. c #CBCDDB",
"*. c #CED0DD",
"=. c #D2D4DE",
"-. c #D4D5E1",
";. c #DCDDE6",
":. c #DFDFE8",
">. c #DFE0E9",
",. c #E2E3EA",
"<. c #E7E8EE",
"1. c #E9E9EF",
"2. c #E7E8F0",
"3. c #EAEBF1",
"4. c None",
/* pixels */
"4.4.4.4.4.4.4.4.4.4.                        4.4.4.4.4.4.4.4.",
"4.4.4.4.4.4.4.4.4.4.0 d k l l l l l l k d 0 4.4.4.4.4.4.4.4.",
"4.4.4.4.4.4.4.4.  : Z ) #.%.%.%.%.%.%.#._ Z :   4.4.4.4.4.4.",
"4.4.4.4.4.4.4.4.> A ] &.>.3.3.2.2.3.3.>.*._ A > 4.4.4.4.4.4.",
"4.4.4.4.4.4.  8 J [ %.;.>.,.,.,.>.,.,.,.;.%.[ J q   4.4.4.4.",
"4.4.4.4.4.4.  s ! @.;.2.,.>.;.>.:.:.;.>.2.;.@.~ s   4.4.4.4.",
"4.4.4.4.4.4.  t E @.;.1.,.;.>.>.>.>.>.,.2.;.O.E t   4.4.4.4.",
"4.4.4.4.4.4.  t W ..$.=.;.,.>.,.>.>.,.;.-.$...Q t   4.4.4.4.",
"4.4.4.4.4.4.  u ^ ] T ) =.<.,.,.,.,.1.=.) T ] ^ s   4.4.4.4.",
"4.4.4.4.4.4.  t E / V T $.;.-.-.-.-.;.$.T B / E t   4.4.4.4.",
"4.4.4.4.4.4.  5 M T Q )  ... .| [  ... .) Q T M 5   4.4.4.4.",
"4.4.4.4.4.4.  < z H ) [ ` ` [  . .[ ` ` [ ) H z ,   4.4.4.4.",
"4.4.4.4.4.4.  1 x K ( ] `  .*.;.;.*. .) { ( K x 1   4.4.4.4.",
"4.4.4.4.4.4.  2 c L ) ] `  .*.;.>.*. .) ] ( L c 1   4.4.4.4.",
"4.4.4.4.4.4.  2 c L ` [ ' ]  .X.X. .] ] [ ` L b 2   4.4.4.4.",
"4.4.4.4.4.4.  - p F Q ' ' ] ` ` ) ` ] ' ' Q S p -   4.4.4.4.",
"4.4.4.4.4.4.    * e B Q ' } ] ] ] ] [ ' Q M e &     4.4.4.4.",
"4.4.4.4.4.4.t q . O 6 M U ~ / / / / ~ R M 6 O . q t 4.4.4.4.",
"4.4.4.4.  r E U =   O > 7 a m C C m a 7 1 O   = U E r   4.4.",
"4.4.4.4.  f ' [ I g 7 # o 9 D ! Q D 9 o # 7 g I [ ' f   4.4.",
"4.4.4.4.  s ^ O.=.#.I 4 4 D o.-.=.o.D 4 4 P #.-.@./ s   4.4.",
"4.4.4.4.  q J [ %.%./ F C ) -.3.3.-.) C F / %.%.[ J q   4.4.",
"4.4.4.4.4.4.8 h j J ~ ` /  .-.<.1.-.../ ' ~ P j h 8 4.4.4.4.",
"4.4.4.4.4.4.      , R ' / | -.,.<.=.[ / ' T <       4.4.4.4.",
"4.4.4.4.4.4.4.4.  3 S L B ! =.3.3.=.~ N G M 1   4.4.4.4.4.4.",
"4.4.4.4.4.4.4.4.X , i b n ~ $.;.;.$.Q N G M 5   4.4.4.4.4.4.",
"4.4.4.4.4.4.4.4.@ $ o t R [ ..O.O...] ) { ! a   4.4.4.4.4.4.",
"4.4.4.4.4.4.4.4.+ % O s Q ` ! E R W ~ ^ ) Y r   4.4.4.4.4.4.",
"4.4.4.4.4.4.4.4.. 1 x C K H f w t t y s d w 4.4.4.4.4.4.4.4.",
"4.4.4.4.4.4.4.4.  1 v M n p #               4.4.4.4.4.4.4.4.",
"4.4.4.4.4.4.4.4.4.4.2 3 2 < 4.4.4.4.4.4.4.4.4.4.4.4.4.4.4.4.",
"4.4.4.4.4.4.4.4.4.4.. . .   4.4.4.4.4.4.4.4.4.4.4.4.4.4.4.4."
};
