/* XPM */
static char *result[] = {
/* columns rows colors chars-per-pixel */
"30 32 132 2 ",
"   c black",
".  c #170000",
"X  c #050C26",
"o  c #000029",
"O  c #000032",
"+  c #151931",
"@  c #22263A",
"#  c #26293D",
"$  c #750000",
"%  c #003045",
"&  c #2A2F4C",
"*  c #2D324E",
"=  c #323445",
"-  c #31354D",
";  c #373A4E",
":  c #3B3D4B",
">  c #2B3154",
",  c #363B5D",
"<  c #393D5A",
"1  c #27425B",
"2  c #3E4051",
"3  c #3C405D",
"4  c #3E497E",
"5  c #45464B",
"6  c #434657",
"7  c #42455C",
"8  c #46495F",
"9  c #494D5F",
"0  c #505159",
"q  c #5A5A5F",
"w  c #6A4A5B",
"e  c #464961",
"r  c #4C4F64",
"t  c #4D5066",
"y  c #4D526A",
"u  c #515366",
"i  c #52556B",
"p  c #56596C",
"a  c #5A5C6A",
"s  c #4B5279",
"d  c #5A5D73",
"f  c #5D6072",
"g  c #62636B",
"h  c #6B6C74",
"j  c #6B6D7A",
"k  c #6D707E",
"l  c #72737B",
"z  c #867076",
"x  c #AC626E",
"c  c #B26D77",
"v  c #555D8B",
"b  c #5E658D",
"n  c #566094",
"m  c #60668E",
"M  c #676C8B",
"N  c #647185",
"B  c #6D7088",
"V  c #707285",
"C  c #777984",
"Z  c #727C89",
"A  c #7A7E8B",
"S  c #656C91",
"D  c #6D7390",
"F  c #6F759A",
"G  c #747996",
"H  c #7B7E94",
"J  c #797E9F",
"K  c #737CA1",
"L  c #797EA4",
"P  c #7C809A",
"I  c #7C82A5",
"U  c #82838D",
"Y  c #8B8D94",
"T  c #80839C",
"R  c #8286A4",
"E  c #898DA4",
"W  c #868AA8",
"Q  c #8A8EAC",
"!  c #8B90A7",
"~  c #8E93AD",
"^  c #878CB0",
"/  c #8D91B1",
"(  c #9195B2",
")  c #969AB6",
"_  c #9C9DB5",
"`  c #9196B9",
"'  c #9A9FBA",
"]  c #9CA0B7",
"[  c #9DA1BA",
"{  c #A1A5BC",
"}  c #A4A8BF",
"|  c #B6B6BC",
" . c #C9949E",
".. c #9FA3C1",
"X. c #A1A5C1",
"o. c #A6AAC2",
"O. c #ABAEC3",
"+. c #ACB0CA",
"@. c #B6B7C0",
"#. c #B7BAC1",
"$. c #BBBCC2",
"%. c #B3B6CE",
"&. c #B5BAD2",
"*. c #BEC2CD",
"=. c #BCC0D5",
"-. c #BEC2D9",
";. c #C3C4CD",
":. c #CEC3CD",
">. c #C4C6D2",
",. c #C7C9D7",
"<. c #CBCCD4",
"1. c #C3C6D9",
"2. c #C7CADC",
"3. c #CACCDA",
"4. c #D1C6D2",
"5. c #CFD1DE",
"6. c #D3D4DC",
"7. c #D9D7DD",
"8. c #D8D9DF",
"9. c #E2D8DF",
"0. c #CCCFE2",
"q. c #D1D5E1",
"w. c #D7D9E2",
"e. c #DBDCE5",
"r. c #DEDFE8",
"t. c #DFE0E8",
"y. c #E1E3EB",
"u. c #E7E8ED",
"i. c #E7E8F1",
"p. c #E9EAF3",
"a. c #F0F1FA",
"s. c None",
/* pixels */
"s.s.s.s.s.s.s.s.s.s.                        s.s.s.s.s.s.s.s.",
"s.s.s.s.s.s.s.s.s.s.e f j l k l l l l j d e s.s.s.s.s.s.s.s.",
"s.s.s.s.s.s.s.s.  - G [ ;.<.<.<.<.<.<.*.{ G -   s.s.s.s.s.s.",
"s.s.s.s.s.s.s.s.: P o.0.t.p.u.i.u.u.p.y.3.o.H ; s.s.s.s.s.s.",
"s.s.s.s.s.s.  9 P O.,.e.t.y.t.y.t.y.t.t.e.<.%.H 9   s.s.s.s.",
"s.s.s.s.s.s.  d ) -.e.u.y.t.t.t.r.r.t.y.u.e.&.) d   s.s.s.s.",
"s.s.s.s.s.s.  p ( =.e.u.y.t.t.t.y.t.t.y.u.e.&.( p   s.s.s.s.",
"s.s.s.s.s.s.  y R +.,.e.t.y.t.t.r.t.t.t.r.,.%.R y   s.s.s.s.",
"s.s.s.s.s.s.  < b ^ o.2.e.u.t.t.r.y.u.r.2.o.^ b <   s.s.s.s.",
"s.s.s.s.s.s.  3 M L I [ ,.t.t.t.y.r.e.,.[ I I M 3   s.s.s.s.",
"s.s.s.s.s.s.  i ~ ~ d N X.2.e.u.u.e.2.{ N d ( / i   s.s.s.s.",
"s.s.s.s.s.s.  d { _ 6 o B } ,.e.e.,.{ B o 6 _ [ d   s.s.s.s.",
"s.s.s.s.s.s.  d ' ) u   % N [ %.%.] N %   u _ ' d   s.s.s.s.",
"s.s.s.s.s.s.  d ' ' i   . w _ &.&._ w .   y ' [ d   s.s.s.s.",
"s.s.s.s.s.s.  d X._ 1   $ x :.u.y.:.x $   1 [ { d   s.s.s.s.",
"s.s.s.s.s.s.  e R ~ Z z c  .:.q.w.:. .c z Z ~ R 8   s.s.s.s.",
"s.s.s.s.s.s.      k #.7.9.4._ J K _ 4.9.7.#.k       s.s.s.s.",
"s.s.s.s.s.s.l l q Y 3.y.w.*.) L L ) *.w.y.3.Y a l l s.s.s.s.",
"s.s.s.s.  h @.6.6.<.1.O.P U >.r.e.;.Y P O.1.<.<.6.| h   s.s.",
"s.s.s.s.  U w.a.u.5.O.N   5 | 7.8.| 5   M o.6.i.a.8.U   s.s.",
"s.s.s.s.  U r.p.0.} V +     0 g g 0     + V o.0.p.e.U   s.s.",
"s.s.s.s.  h #.<.{ G 3 O 7 u a g g a p 7 O 3 G { <.$.h   s.s.",
"s.s.s.s.s.s.h C p y s b L { ;.6.6.;.[ J m s y p C h s.s.s.s.",
"s.s.s.s.s.s.      * S ` +.1.5.e.w.6.,.+.` S &       s.s.s.s.",
"s.s.s.s.s.s.s.s.  t Q &.w.q.{ R R { q.w.%.W t   s.s.s.s.s.s.",
"s.s.s.s.s.s.s.s.  9 T O.3.>.Q n n / >.5.%.Q i   s.s.s.s.s.s.",
"s.s.s.s.s.s.s.s.X @ = d T ` ' X...' ) / ^ F e   s.s.s.s.s.s.",
"s.s.s.s.s.s.s.s.X & : i m L ( ' ' Q m 4 v s >   s.s.s.s.s.s.",
"s.s.s.s.s.s.s.s.  i E [ X.( B u d i < > , - s.s.s.s.s.s.s.s.",
"s.s.s.s.s.s.s.s.  u ~ X.{ E 6               s.s.s.s.s.s.s.s.",
"s.s.s.s.s.s.s.s.s.s.p d d u s.s.s.s.s.s.s.s.s.s.s.s.s.s.s.s.",
"s.s.s.s.s.s.s.s.s.s.        s.s.s.s.s.s.s.s.s.s.s.s.s.s.s.s."
};
