/* XPM */
static char *result[] = {
/* columns rows colors chars-per-pixel */
"30 32 145 2 ",
"   c #000000",
".  c #00000A",
"X  c #100000",
"o  c #000016",
"O  c #00001C",
"+  c #262838",
"@  c #333339",
"#  c #770000",
"$  c #091C51",
"%  c #002A42",
"&  c #232843",
"*  c #252C4E",
"=  c #292D4A",
"-  c #2F334F",
";  c #333645",
":  c #262D50",
">  c #303656",
",  c #353A55",
"<  c #3C3F51",
"1  c #353B5C",
"2  c #393E5D",
"3  c #313D70",
"4  c #3F435D",
"5  c #3C4263",
"6  c #414355",
"7  c #494A54",
"8  c #41455E",
"9  c #53545E",
"0  c #6D4F5F",
"q  c #4C4E61",
"w  c #415361",
"e  c #4E5165",
"r  c #535563",
"t  c #52556A",
"y  c #57596D",
"u  c #47507E",
"i  c #4D547B",
"p  c #5A5D72",
"a  c #525778",
"s  c #5E606D",
"d  c #5E6174",
"f  c #56657D",
"g  c #5E6178",
"h  c #636364",
"j  c #64656B",
"k  c #68686A",
"l  c #656777",
"z  c #6B6C75",
"x  c #6C6E7D",
"c  c #6F7077",
"v  c #6F717B",
"b  c #72737B",
"n  c #AE6572",
"m  c #4E5684",
"M  c #525A87",
"N  c #555E8B",
"B  c #5B6185",
"V  c #5A618D",
"C  c #6E7080",
"Z  c #677388",
"A  c #6A718F",
"S  c #747681",
"D  c #777881",
"F  c #7A7B84",
"G  c #71748A",
"H  c #626994",
"J  c #696F92",
"K  c #656D99",
"L  c #677092",
"P  c #6D7294",
"I  c #6B729C",
"U  c #767A91",
"Y  c #71779D",
"T  c #73799E",
"R  c #797E99",
"E  c #767CA4",
"W  c #797FA5",
"Q  c #7F808A",
"!  c #7D83A7",
"~  c #7F85AB",
"^  c #82838D",
"/  c #828492",
"(  c #878995",
")  c #898B94",
"_  c #83869E",
"`  c #8086A6",
"'  c #8589A1",
"]  c #8287A9",
"[  c #868BAC",
"{  c #8B8FAD",
"}  c #8D92AE",
"|  c #8E93B3",
" . c #9296B2",
".. c #969AB3",
"X. c #9A9EB6",
"o. c #969BBA",
"O. c #9A9EBB",
"+. c #9DA1BD",
"@. c #A3A4AD",
"#. c #A1A3B7",
"$. c #A2A4BC",
"%. c #A6A8BD",
"&. c #B3B4BB",
"*. c #CC98A2",
"=. c #9FA3C0",
"-. c #A2A6C2",
";. c #A5A9C4",
":. c #A9ADC6",
">. c #AAAEC9",
",. c #AEB1CA",
"<. c #B6B7C0",
"1. c #BCBDC2",
"2. c #B1B4CB",
"3. c #B6BACF",
"4. c #BCBEC9",
"5. c #AEB3D0",
"6. c #B1B5D2",
"7. c #B7BAD1",
"8. c #BEC4CE",
"9. c #BFC2D4",
"0. c #C2C4CD",
"q. c #C5C6D0",
"w. c #C6C8D4",
"e. c #CBCCD3",
"r. c #C3C5D8",
"t. c #C5C8DA",
"y. c #CBCDDC",
"u. c #D6CCD6",
"i. c #CED1DD",
"p. c #D0D1D7",
"a. c #D3D4DB",
"s. c #CCCEE2",
"d. c #D3D5E2",
"f. c #D7D8E2",
"g. c #DBDCE4",
"h. c #DDDFE9",
"j. c #DFE0EB",
"k. c #E2E3EB",
"l. c #E7E8EE",
"z. c #E4E6F1",
"x. c #E7E8F0",
"c. c #E9EAF2",
"v. c #EFF0F8",
"b. c #F0F1FA",
"n. c None",
/* pixels */
"n.n.n.n.n.n.n.n.n.n.                        n.n.n.n.n.n.n.n.",
"n.n.n.n.n.n.n.n.n.n.z F b b b b b z y e p q n.n.n.n.n.n.n.n.",
"n.n.n.n.n.n.n.n.  9 &.a.e.e.q.e.e.8.X.[ o._ <   n.n.n.n.n.n.",
"n.n.n.n.n.n.n.n.9 @.f.v.c.l.l.c.c.j.t.2.6.$.U < n.n.n.n.n.n.",
"n.n.n.n.n.n.  z &.g.j.k.k.k.k.k.l.k.j.i.2.+.O._ q   n.n.n.n.",
"n.n.n.n.n.n.  F a.v.k.h.g.h.k.h.f.a.g.y.2.-.2.O.d   n.n.n.n.",
"n.n.n.n.n.n.  F e.l.k.k.k.k.l.f.q.>.2.2.;.;.>. .y   n.n.n.n.",
"n.n.n.n.n.n.  D e.l.k.k.f.a.f.y.:.o.+.-.-.;.>. .y   n.n.n.n.",
"n.n.n.n.n.n.  D e.c.l.g.r.2.,.:.-.-.-.;.:.;.:. .y   n.n.n.n.",
"n.n.n.n.n.n.  D e.x.h.w.X.{ ;.,.:.-.O.o.o.+.;.o.y   n.n.n.n.",
"n.n.n.n.n.n.  F p.z.s.$.g S 0.d.3.X.! I I ] ;.X.p   n.n.n.n.",
"n.n.n.n.n.n.  b q.i.%.L   k p.k.2.[ ! I I ! o.| t   n.n.n.n.",
"n.n.n.n.n.n.  d $.;.Z %   b a.g.o.I | X.O. .[ J 4   n.n.n.n.",
"n.n.n.n.n.n.  d %.%.0 X   z 0.i.} E +.>.,.+.W m >   n.n.n.n.",
"n.n.n.n.n.n.  D i.u.n #   w #.6.=.O.;.>.>.+.] N 2   n.n.n.n.",
"n.n.n.n.n.n.  v 8.u.*.n 0 f } ;.;.;.+.O.+.| E i -   n.n.n.n.",
"n.n.n.n.n.n.  4 L #.u.u.#.] o.-.>.-.[ E ~ T a & n.n.n.n.n.n.",
"n.n.n.n.n.n.  8 P +.q.i.r.7.7.2.-.{ H m N i &   n.n.n.n.n.n.",
"n.n.n.n.n.n.  D w.e.( ) e.z.z.y.X.N $ o : , n.n.n.n.n.n.n.n.",
"n.n.n.n.n.n.  v 0.4.; + &.a.p.4.! M x h @   n.n.n.n.n.n.n.n.",
"n.n.n.n.n.n.    9 9     7 j k l M ] 0.1.z   n.n.n.n.n.n.n.n.",
"n.n.n.n.n.n.v b k j b b j 9 ; 5 V $.j.f.F   n.n.n.n.n.n.n.n.",
"n.n.n.n.  z <.a.e.e.p.p.p.8.+.|  .2.h.p.F   n.n.n.n.n.n.n.n.",
"n.n.n.n.  ^ f.v.z.g.a.a.h.a.,.o.o.,.h.p.D   n.n.n.n.n.n.n.n.",
"n.n.n.n.  ^ g.c.s.%.b x %.>.[ I H o.h.a.b   n.n.n.n.n.n.n.n.",
"n.n.n.n.  z 1.e.+.R s S $.>.[ I K  .y.e.( = n.n.n.n.n.n.n.n.",
"n.n.n.n.n.n.b x < S 1.a.j.d.,.O.=.-.2.,.$._ q   n.n.n.n.n.n.",
"n.n.n.n.n.n.      C q.h.a.q.%. ...o.O.;.5.+.g   n.n.n.n.n.n.",
"n.n.n.n.n.n.  : i E |  ./ c d t 9 G X.,.6.+.g   n.n.n.n.n.n.",
"n.n.n.n.n.n.  , B H N 3 O         4 _ +.X.' e   n.n.n.n.n.n.",
"n.n.n.n.n.n.n.n., 2 1 = n.n.n.n.n.n.e p p r n.n.n.n.n.n.n.n.",
"n.n.n.n.n.n.n.n.. . . . n.n.n.n.n.n.        n.n.n.n.n.n.n.n."
};
