/* XPM */
static char *result[] = {
/* columns rows colors chars-per-pixel */
"30 32 146 2 ",
"   c #000000",
".  c #00000A",
"X  c #100000",
"o  c #000016",
"O  c #00001C",
"+  c #262838",
"@  c #333339",
"#  c #770000",
"$  c #0A1C51",
"%  c #002942",
"&  c #232843",
"*  c #252D4E",
"=  c #292F4A",
"-  c #2F334F",
";  c #333645",
":  c #262D50",
">  c #303657",
",  c #353A54",
"<  c #3C3F51",
"1  c #353B5C",
"2  c #393E5D",
"3  c #313D70",
"4  c #3E435D",
"5  c #3C4263",
"6  c #404355",
"7  c #494A54",
"8  c #41455E",
"9  c #52535D",
"0  c #6D4F5F",
"q  c #4C4E61",
"w  c #415361",
"e  c #4E5165",
"r  c #535563",
"t  c #52556A",
"y  c #575A6E",
"u  c #47507E",
"i  c #4C547B",
"p  c #5A5D72",
"a  c #525778",
"s  c #5E606D",
"d  c #5E6174",
"f  c #56657D",
"g  c #5E6178",
"h  c #636364",
"j  c #64656B",
"k  c #68686A",
"l  c #656776",
"z  c #6B6C75",
"x  c #6C6E7D",
"c  c #6F7077",
"v  c #6F717B",
"b  c #72737B",
"n  c #AE6572",
"m  c #4E5684",
"M  c #525A87",
"N  c #565E8B",
"B  c #5B6186",
"V  c #5A618D",
"C  c #6E7080",
"Z  c #677388",
"A  c #6A718E",
"S  c #747681",
"D  c #767881",
"F  c #7A7B83",
"G  c #71748A",
"H  c #626994",
"J  c #696F92",
"K  c #656D99",
"L  c #677092",
"P  c #6D7294",
"I  c #6B729C",
"U  c #767A91",
"Y  c #71779D",
"T  c #73799E",
"R  c #797E99",
"E  c #767CA4",
"W  c #797FA5",
"Q  c #7F808A",
"!  c #7D83A7",
"~  c #7F85AB",
"^  c #82838D",
"/  c #828492",
"(  c #868995",
")  c #898B94",
"_  c #83869E",
"`  c #8186A6",
"'  c #8588A0",
"]  c #8287A9",
"[  c #868BAC",
"{  c #8B8FAD",
"}  c #8D92AE",
"|  c #9296AF",
" . c #8E93B3",
".. c #9296B3",
"X. c #969AB3",
"o. c #9A9EB6",
"O. c #969BBA",
"+. c #9A9EBB",
"@. c #9DA1BD",
"#. c #A3A4AD",
"$. c #A1A3B7",
"%. c #A2A4BC",
"&. c #A6A8BD",
"*. c #B3B4BB",
"=. c #CC98A2",
"-. c #9FA3C0",
";. c #A2A6C2",
":. c #A5A9C4",
">. c #A9ADC6",
",. c #AAAEC9",
"<. c #AEB1CA",
"1. c #B6B7C0",
"2. c #BCBDC3",
"3. c #B1B4CB",
"4. c #B6BACF",
"5. c #BCBEC9",
"6. c #AEB3D0",
"7. c #B1B5D2",
"8. c #B7BAD1",
"9. c #BEC4CE",
"0. c #BFC2D4",
"q. c #C2C4CE",
"w. c #C5C6D0",
"e. c #C6C8D4",
"r. c #CACCD3",
"t. c #C3C5D8",
"y. c #C5C8DA",
"u. c #CBCDDC",
"i. c #D6CCD6",
"p. c #CED1DD",
"a. c #D0D1D7",
"s. c #D3D4DB",
"d. c #CCCEE2",
"f. c #D3D4E2",
"g. c #D7D8E2",
"h. c #DBDCE4",
"j. c #DDDFE9",
"k. c #DFE0EB",
"l. c #E2E3EB",
"z. c #E7E8EE",
"x. c #E4E6F1",
"c. c #E7E8F0",
"v. c #E9EAF2",
"b. c #EFF0F8",
"n. c #F0F1FA",
"m. c None",
/* pixels */
"m.m.m.m.m.m.m.m.m.m.                        m.m.m.m.m.m.m.m.",
"m.m.m.m.m.m.m.m.m.m.r y e y z b b b b b F z m.m.m.m.m.m.m.m.",
"m.m.m.m.m.m.m.m.  < _ O.[ o.5.r.r.r.e.r.s.*.9   m.m.m.m.m.m.",
"m.m.m.m.m.m.m.m.< U @.7.3.y.l.v.z.c.c.z.n.g.#.9 m.m.m.m.m.m.",
"m.m.m.m.m.m.  q _ %.@.3.u.l.l.z.l.k.l.l.l.h.h.*.z   m.m.m.m.",
"m.m.m.m.m.m.  d +.,.;.<.s.h.g.g.h.l.k.l.h.l.n.s.Q   m.m.m.m.",
"m.m.m.m.m.m.  y O.,.;.>.3.3.<.8.g.z.l.l.l.l.z.r.D   m.m.m.m.",
"m.m.m.m.m.m.  y ..:.:.;.;.+.O.>.u.g.s.h.j.l.z.r.D   m.m.m.m.",
"m.m.m.m.m.m.  y ..,.>.>.:.>.;.;.>.3.3.t.h.z.c.r.b   m.m.m.m.",
"m.m.m.m.m.m.  y X.>.+.O.O.+.%.>.<.:.[ o.e.k.z.r.D   m.m.m.m.",
"m.m.m.m.m.m.  p +.:.] I I ] O.8.s.q.S g %.d.x.s.F   m.m.m.m.",
"m.m.m.m.m.m.  t } O.! I I W [ 3.l.a.k   A ;.p.q.b   m.m.m.m.",
"m.m.m.m.m.m.  4 J ] ..+.-. .I ..h.s.b   % Z &.&.l   m.m.m.m.",
"m.m.m.m.m.m.  > m W @.,.<.+.E  .u.w.z   X 0 &.;.p   m.m.m.m.",
"m.m.m.m.m.m.  2 V ~ @.,.,.>.O.-.8.$.w   # n i.p.F   m.m.m.m.",
"m.m.m.m.m.m.  - i Y ..-.+.+.:.:.:.} f 0 n =.i.0.v   m.m.m.m.",
"m.m.m.m.m.m.m.m.& a E ] W [ @.>.-.O.[ @.i.i.$.L 4   m.m.m.m.",
"m.m.m.m.m.m.m.m.  & i M u H } ;.<.8.4.0.p.w.@.P 8   m.m.m.m.",
"m.m.m.m.m.m.m.m.m.m., : o $ V +.u.z.z.r.) ) r.r.S   m.m.m.m.",
"m.m.m.m.m.m.m.m.m.m.  @ h x M ` 5.s.s.*.+ ; 2.q.z   m.m.m.m.",
"m.m.m.m.m.m.m.m.m.m.  z 2.q.` M l k j 7     9 r     m.m.m.m.",
"m.m.m.m.m.m.m.m.m.m.  F g.j.@.V 5 ; r k b b j j b v m.m.m.m.",
"m.m.m.m.m.m.m.m.m.m.  F s.j.<... .$.9.r.s.p.r.r.s.1.z   m.m.",
"m.m.m.m.m.m.m.m.m.m.  D s.j.<.O.O.<.f.j.s.s.h.l.n.g.^   m.m.",
"m.m.m.m.m.m.m.m.m.m.  b s.h.O.H I [ ,.&.v b &.d.v.h.^   m.m.",
"m.m.m.m.m.m.m.m.m.m.= ( r.u...K K [ ,.;.S s R @.r.2.z   m.m.",
"m.m.m.m.m.m.m.m.  q _ %.3.3.;.@.+.<.f.j.g.2.S < v b m.m.m.m.",
"m.m.m.m.m.m.m.m.  g @.6.:.+.+.X...&.w.s.j.q.C       m.m.m.m.",
"m.m.m.m.m.m.m.m.  d @.7.<.@.G q t d c / .. .Y i :   m.m.m.m.",
"m.m.m.m.m.m.m.m.  e ' +.@._ 6         O 3 N H B ,   m.m.m.m.",
"m.m.m.m.m.m.m.m.m.m.r p p e m.m.m.m.m.m.* 1 2 , m.m.m.m.m.m.",
"m.m.m.m.m.m.m.m.m.m.        m.m.m.m.m.m.. . . . m.m.m.m.m.m."
};
