/* XPM */
static char *result[] = {
/* columns rows colors chars-per-pixel */
"30 32 156 2 ",
"   c #000000",
".  c #00000A",
"X  c #100000",
"o  c #00001E",
"O  c #000032",
"+  c #262838",
"@  c #770000",
"#  c #000041",
"$  c #171F45",
"%  c #002942",
"&  c #112052",
"*  c #1E2851",
"=  c #222741",
"-  c #222842",
";  c #2B2F47",
":  c #2F324D",
">  c #333545",
",  c #31344B",
"<  c #2B3255",
"1  c #313652",
"2  c #343954",
"3  c #3D3F51",
"4  c #373D5E",
"5  c #3A3F5C",
"6  c #3D425D",
"7  c #3E4364",
"8  c #3E456B",
"9  c #494A54",
"0  c #41455E",
"q  c #484A5D",
"w  c #52535D",
"e  c #6D4F5F",
"r  c #4B4D62",
"t  c #424768",
"y  c #415361",
"u  c #4E5166",
"i  c #545663",
"p  c #535669",
"a  c #575A6E",
"s  c #5D5E6B",
"d  c #424974",
"f  c #4B5378",
"g  c #5A5D72",
"h  c #51577B",
"j  c #555B7E",
"k  c #5F6173",
"l  c #5E6178",
"z  c #56657D",
"x  c #64656C",
"c  c #69696C",
"v  c #6B6C75",
"b  c #6E6F7B",
"n  c #626471",
"m  c #6F717B",
"M  c #72737C",
"N  c #AE6572",
"B  c #4D5685",
"V  c #4E5789",
"C  c #4F598F",
"Z  c #545B83",
"A  c #595F84",
"S  c #555E8F",
"D  c #5B638E",
"F  c #5C6494",
"G  c #656A8B",
"H  c #677388",
"J  c #6A718E",
"K  c #747682",
"L  c #767982",
"P  c #7A7A82",
"I  c #646B95",
"U  c #696F92",
"Y  c #676F9F",
"T  c #686F9A",
"R  c #677092",
"E  c #6C7295",
"W  c #6B729B",
"Q  c #767A91",
"!  c #70779F",
"~  c #73799E",
"^  c #797D99",
"/  c #6E76A3",
"(  c #747AA2",
")  c #797FA5",
"_  c #7F808A",
"`  c #7D819F",
"'  c #7D83A7",
"]  c #7F84AA",
"[  c #81828D",
"{  c #868992",
"}  c #83869E",
"|  c #898B94",
" . c #8F909D",
".. c #8589A5",
"X. c #8287AA",
"o. c #858BAC",
"O. c #8A8FAE",
"+. c #8286A3",
"@. c #8D91AD",
"#. c #8E93B3",
"$. c #9297B3",
"%. c #969AB4",
"&. c #9B9EB6",
"*. c #969BB9",
"=. c #9A9EBB",
"-. c #9DA0B7",
";. c #9DA1BD",
":. c #A3A4AD",
">. c #A1A3B7",
",. c #A3A5BB",
"<. c #A6A9BE",
"1. c #B5B5BC",
"2. c #CC98A2",
"3. c #9FA3C0",
"4. c #A2A6C2",
"5. c #A6AAC4",
"6. c #AAADC6",
"7. c #AAAEC9",
"8. c #AEB1C7",
"9. c #ADB1CA",
"0. c #B6B7C0",
"q. c #BDBEC4",
"w. c #B2B5CB",
"e. c #B6BACF",
"r. c #BDBFC9",
"t. c #B0B4D1",
"y. c #B7BAD2",
"u. c #B9BCD3",
"i. c #BEC4CE",
"p. c #BFC2D4",
"a. c #C2C3CD",
"s. c #C4C6D2",
"d. c #C6C8D4",
"f. c #CACCD4",
"g. c #C3C5D8",
"h. c #C5C8DA",
"j. c #CACDDC",
"k. c #D6CCD6",
"l. c #CED1DD",
"z. c #D1D1D7",
"x. c #D2D3DA",
"c. c #D7D8DE",
"v. c #CCCEE2",
"b. c #D3D5E2",
"n. c #D7D8E2",
"m. c #DBDCE4",
"M. c #DDDEE9",
"N. c #DFE0EB",
"B. c #E2E3EB",
"V. c #E7E8EE",
"C. c #E5E6F2",
"Z. c #E7E8F0",
"A. c #E9EAF2",
"S. c #EFF0F8",
"D. c #F0F1FA",
"F. c None",
/* pixels */
"F.F.F.F.F.F.F.F.F.F.                        F.F.F.F.F.F.F.F.",
"F.F.F.F.F.F.F.F.F.F.i a u a b M M M M M P v F.F.F.F.F.F.F.F.",
"F.F.F.F.F.F.F.F.  3 } *.o.&.r.f.f.f.d.f.x.1.w   F.F.F.F.F.F.",
"F.F.F.F.F.F.F.F.3 Q =.t.w.h.N.A.V.Z.V.V.D.n.:.w F.F.F.F.F.F.",
"F.F.F.F.F.F.  r } ;.;.w.l.M.B.V.B.B.B.B.B.m.n.1.v   F.F.F.F.",
"F.F.F.F.F.F.  k =.9.4.w.l.m.c.n.m.B.B.M.m.B.S.c._   F.F.F.F.",
"F.F.F.F.F.F.  a %.7.4.5.w.w.9.p.n.V.B.B.B.B.V.f.L   F.F.F.F.",
"F.F.F.F.F.F.  a $.7.5.4.4.=.*.6.j.n.c.n.M.B.V.f.L   F.F.F.F.",
"F.F.F.F.F.F.  a $.7.6.5.5.4.4.4.6.9.w.g.m.V.Z.f.M   F.F.F.F.",
"F.F.F.F.F.F.  a %.5.;.*.*.;.,.6.9.5.O.-.d.N.Z.f.P   F.F.F.F.",
"F.F.F.F.F.F.  g =.5.X.W W ] =.y.b.a.K k ,.v.B.x.P   F.F.F.F.",
"F.F.F.F.F.F.  p @.=.' W W ) o.w.N.z.x   J 4.b.a.M   F.F.F.F.",
"F.F.F.F.F.F.  6 U X.$.=.=.#.W $.m.x.M   % H 4.<.n   F.F.F.F.",
"F.F.F.F.F.F.  1 B ) ;.9.7.3.( #.j.s.m   X e ,.<.k   F.F.F.F.",
"F.F.F.F.F.F.  5 D ] ;.7.7.5.=.3.e.>.y   @ N k.j.L   F.F.F.F.",
"F.F.F.F.F.F.  < f ~ #.3.*.;.5.5.5.@.z e N 2.k.i.K   F.F.F.F.",
"F.F.F.F.F.F.F.F.= h ! ' ( X.5.9.3.*.o.>.z.k.>.R 6   F.F.F.F.",
"F.F.F.F.F.F.F.F.  = f D S W X.;.9.e.y.p.l.s.;.E 0   F.F.F.F.",
"F.F.F.F.F.F.F.F.F.F.: 8 V B < _ d.C.C.f.| { z.d.K   F.F.F.F.",
"F.F.F.F.F.F.F.F.F.F.  q ..+.- s 1.c.x.1.+ > q.a.v   F.F.F.F.",
"F.F.F.F.F.F.F.F.F.F.  m a.s.' d n c x 9     w w     F.F.F.F.",
"F.F.F.F.F.F.F.F.F.F.  P c.N.;.F 7 > w x M M x x M M F.F.F.F.",
"F.F.F.F.F.F.F.F.F.F.  P l.m.w.$.#.>.a.z.x.l.f.f.c.0.v   F.F.",
"F.F.F.F.F.F.F.F.F.F.  P k.M.w.*.*.9.b.M.x.x.m.C.S.n.[   F.F.",
"F.F.F.F.F.F.F.F.F.F.  P n.N.=.T W O.6.<.b K <.j.A.m.[   F.F.",
"F.F.F.F.F.F.F.F.F.F.O L q.a.X.C S ' 5.<.K s ^ ;.d.q.v   F.F.",
"F.F.F.F.F.F.F.F.  1 Z G v b E Y F #.j.B.c.1.b , b M F.F.F.F.",
"F.F.F.F.F.F.F.F.  7 T I & # B G B +.r.n.B.j.[ o     F.F.F.F.",
"F.F.F.F.F.F.F.F.  7 I / I Z t 1 < r x  .w.u.5...r   F.F.F.F.",
"F.F.F.F.F.F.F.F.  1 j I I A :         $ ^ =.,.@.p   F.F.F.F.",
"F.F.F.F.F.F.F.F.F.F.2 5 6 2 F.F.F.F.F.F.r a g p F.F.F.F.F.F.",
"F.F.F.F.F.F.F.F.F.F.. . . . F.F.F.F.F.F.        F.F.F.F.F.F."
};
