/* XPM */
static char *result[] = {
/* columns rows colors chars-per-pixel */
"30 32 131 2 ",
"   c black",
".  c #170000",
"X  c #050C26",
"o  c #000029",
"O  c #000032",
"+  c #151931",
"@  c #22253A",
"#  c #26293D",
"$  c #750000",
"%  c #003045",
"&  c #2C314D",
"*  c #323444",
"=  c #32354C",
"-  c #373A4E",
";  c #3B3D4B",
":  c #2B3154",
">  c #303450",
",  c #363B5D",
"<  c #393D5A",
"1  c #27425B",
"2  c #3E4051",
"3  c #3C405D",
"4  c #3F497E",
"5  c #45464B",
"6  c #434657",
"7  c #42455C",
"8  c #46495F",
"9  c #494D5F",
"0  c #505159",
"q  c #5A5A5F",
"w  c #6A4A5B",
"e  c #464961",
"r  c #4B4E63",
"t  c #4D5066",
"y  c #4D526A",
"u  c #515366",
"i  c #52556B",
"p  c #56596C",
"a  c #5A5C6A",
"s  c #4B5279",
"d  c #5A5D73",
"f  c #5D6072",
"g  c #62636B",
"h  c #6B6C74",
"j  c #6B6D7A",
"k  c #6D707E",
"l  c #72737B",
"z  c #867076",
"x  c #AC626E",
"c  c #B26D77",
"v  c #555D8B",
"b  c #5E658D",
"n  c #566094",
"m  c #60668E",
"M  c #676C8B",
"N  c #647185",
"B  c #6D7088",
"V  c #707285",
"C  c #777984",
"Z  c #727C89",
"A  c #7A7E8B",
"S  c #656C91",
"D  c #6D7390",
"F  c #6F759A",
"G  c #747996",
"H  c #7B7E94",
"J  c #797E9F",
"K  c #737CA1",
"L  c #797EA4",
"P  c #7C809A",
"I  c #7C82A5",
"U  c #82838D",
"Y  c #8B8D94",
"T  c #80839C",
"R  c #8286A4",
"E  c #898DA5",
"W  c #868AA8",
"Q  c #8A8EAC",
"!  c #8E93AD",
"~  c #878DB0",
"^  c #8D92B1",
"/  c #9195B2",
"(  c #969AB6",
")  c #9C9DB5",
"_  c #9096B9",
"`  c #9A9FBA",
"'  c #9CA0B7",
"]  c #9DA1BA",
"[  c #A1A5BC",
"{  c #A4A8BF",
"}  c #B6B6BC",
"|  c #C9949E",
" . c #9FA3C1",
".. c #A1A5C1",
"X. c #A6AAC2",
"o. c #ABAEC3",
"O. c #ACB0CA",
"+. c #B6B7C0",
"@. c #B7BAC1",
"#. c #BBBCC2",
"$. c #B3B6CE",
"%. c #B5BAD2",
"&. c #BEC2CD",
"*. c #BCC0D5",
"=. c #BEC2D9",
"-. c #C3C4CD",
";. c #CEC3CD",
":. c #C4C6D2",
">. c #C7C9D7",
",. c #CBCCD4",
"<. c #C3C6D9",
"1. c #C7CADC",
"2. c #CACCDA",
"3. c #D1C6D2",
"4. c #CFD1DE",
"5. c #D3D4DC",
"6. c #D9D7DD",
"7. c #D8D9DF",
"8. c #E2D8DF",
"9. c #CCCFE2",
"0. c #D1D5E1",
"q. c #D7D9E2",
"w. c #DBDCE5",
"e. c #DEDFE8",
"r. c #DFE0E8",
"t. c #E1E3EB",
"y. c #E7E8ED",
"u. c #E7E8F1",
"i. c #E9EAF3",
"p. c #F0F1FA",
"a. c None",
/* pixels */
"a.a.a.a.a.a.a.a.a.a.                        a.a.a.a.a.a.a.a.",
"a.a.a.a.a.a.a.a.a.a.e f j l l l l l l j d e a.a.a.a.a.a.a.a.",
"a.a.a.a.a.a.a.a.  = G ] -.,.,.,.,.,.,.&.[ G =   a.a.a.a.a.a.",
"a.a.a.a.a.a.a.a.- P X.2.r.i.y.u.y.y.i.t.2.{ H - a.a.a.a.a.a.",
"a.a.a.a.a.a.  9 P o.>.e.r.t.t.t.r.t.t.r.w.,.o.J r   a.a.a.a.",
"a.a.a.a.a.a.  d ( =.w.y.t.r.r.r.e.e.w.t.y.w.<.( d   a.a.a.a.",
"a.a.a.a.a.a.  p / *.q.y.t.r.r.r.t.t.e.t.y.w.%.! p   a.a.a.a.",
"a.a.a.a.a.a.  y R O.2.w.e.t.r.r.e.e.r.r.e.2.$.R y   a.a.a.a.",
"a.a.a.a.a.a.  < b ~ X.1.w.y.r.r.e.r.y.e.1.X.~ b <   a.a.a.a.",
"a.a.a.a.a.a.  3 M L I ] >.e.r.r.t.e.e.>.] I I M 3   a.a.a.a.",
"a.a.a.a.a.a.  i ! / d N [ 2.e.y.y.w.2.[ N d / ^ i   a.a.a.a.",
"a.a.a.a.a.a.  d [ ) 2 o D [ >.w.w.>...B o 2 ) ] d   a.a.a.a.",
"a.a.a.a.a.a.  d ` ) u   % N ] $.$.' N %   u ) ` d   a.a.a.a.",
"a.a.a.a.a.a.  d ` ` y   . w ' %.%.) w .   y ` ] d   a.a.a.a.",
"a.a.a.a.a.a.  d ..` 1   $ x ;.r.t.;.x $   1 ] [ d   a.a.a.a.",
"a.a.a.a.a.a.  e R ! Z z c | ;.q.0.;.| c z Z ! R 8   a.a.a.a.",
"a.a.a.a.a.a.      k @.6.8.3.) J K ) 3.8.q.#.j       a.a.a.a.",
"a.a.a.a.a.a.l l q Y 2.t.q.&.( L I ( &.q.t.,.Y a l l a.a.a.a.",
"a.a.a.a.  h } 5.,.,.<.o.A Y :.e.w.-.Y P o.<.,.,.5.+.h   a.a.",
"a.a.a.a.  U q.p.i.0.X.M   5 } 7.7.} 5   M X.0.u.p.6.U   a.a.",
"a.a.a.a.  U w.i.9.{ V +     0 g g 0     + V ..9.i.w.U   a.a.",
"a.a.a.a.  h #.>.[ G 3 O 6 u a g g a p 7 O 3 G [ ,.#.h   a.a.",
"a.a.a.a.a.a.h C a y s m L [ -.5.5.-.[ J m s y a C h a.a.a.a.",
"a.a.a.a.a.a.      & S _ O.<.9.q.q.5.<.O._ S &       a.a.a.a.",
"a.a.a.a.a.a.a.a.  y W $.q.0.{ R R [ 0.w.%.Q y   a.a.a.a.a.a.",
"a.a.a.a.a.a.a.a.  i Q $.2.>.Q n n Q >.2.o.T r   a.a.a.a.a.a.",
"a.a.a.a.a.a.a.a.  e F ~ ^ / ` .. .` _ P d * @ X a.a.a.a.a.a.",
"a.a.a.a.a.a.a.a.  > s v v v W ` ` / L b i ; # X a.a.a.a.a.a.",
"a.a.a.a.a.a.a.a.a.a.> , : < i a r B ( ....E i   a.a.a.a.a.a.",
"a.a.a.a.a.a.a.a.a.a.              6 E ..[ Q u   a.a.a.a.a.a.",
"a.a.a.a.a.a.a.a.a.a.a.a.a.a.a.a.a.a.u d f i a.a.a.a.a.a.a.a.",
"a.a.a.a.a.a.a.a.a.a.a.a.a.a.a.a.a.a.        a.a.a.a.a.a.a.a."
};
